<?xml version="1.0" standalone="no"?>
<!DOCTYPE svg PUBLIC "-//W3C//DTD SVG 20010904//EN"
 "http://www.w3.org/TR/2001/REC-SVG-20010904/DTD/svg10.dtd">
<svg version="1.0" xmlns="http://www.w3.org/2000/svg"
 width="800.000000pt" height="600.000000pt" viewBox="0 0 800.000000 600.000000"
 preserveAspectRatio="xMidYMid meet">

<g transform="translate(0.000000,600.000000) scale(0.100000,-0.100000)"
fill="#000000" stroke="none">
<path d="M2921 5996 c2 -2 21 -7 41 -10 21 -3 59 -11 85 -17 27 -6 68 -13 91
-15 24 -3 65 -9 90 -15 26 -6 65 -13 87 -15 22 -2 65 -6 95 -9 91 -10 470 -5
550 6 41 5 140 22 220 38 101 19 156 25 180 20 19 -4 67 -10 105 -13 69 -4 85
-7 115 -19 8 -3 29 -8 47 -11 17 -2 36 -7 41 -10 5 -3 32 -6 60 -7 l50 -2 -39
-27 c-22 -14 -67 -52 -99 -84 -53 -50 -62 -66 -85 -137 -28 -91 -26 -168 5
-199 36 -36 11 -43 -124 -38 -99 5 -134 10 -169 27 -69 33 -104 25 -133 -32
-9 -18 -20 -34 -24 -37 -3 -3 -17 -30 -29 -61 -31 -75 -42 -80 -143 -69 -46 5
-139 11 -208 14 -69 4 -159 8 -200 11 -157 10 -439 16 -463 9 l-26 -6 24 -32
c14 -18 28 -48 31 -67 4 -19 12 -40 17 -48 6 -7 12 -20 13 -27 1 -8 12 -34 23
-57 13 -25 17 -43 11 -45 -7 -3 -7 -9 1 -18 9 -11 9 -18 1 -26 -7 -7 -12 -22
-12 -34 0 -13 -7 -30 -16 -38 -10 -10 -11 -16 -3 -16 8 0 8 -4 1 -12 -5 -7
-12 -47 -14 -88 -3 -41 -8 -82 -12 -91 -5 -12 -1 -18 18 -23 25 -6 304 -31
466 -41 52 -3 116 -8 143 -11 l47 -6 0 36 c0 20 4 36 9 36 4 0 20 26 33 58 26
58 104 152 127 152 10 0 11 -3 2 -14 -6 -7 -9 -21 -5 -29 3 -10 -2 -21 -15
-29 -12 -7 -21 -21 -21 -31 0 -17 -16 -53 -63 -142 -9 -16 -14 -31 -12 -33 3
-3 99 -13 215 -23 224 -20 250 -27 293 -79 45 -54 46 -91 6 -430 -10 -91 -19
-180 -19 -198 0 -32 1 -32 18 -15 10 10 25 34 32 53 26 68 92 195 114 218 11
13 29 28 40 34 17 9 18 7 12 -18 -4 -16 -24 -78 -46 -139 -21 -60 -50 -148
-65 -195 -14 -47 -31 -93 -36 -102 -25 -47 0 -56 178 -68 82 -6 186 -15 233
-20 124 -15 310 -35 605 -64 143 -15 265 -28 271 -30 6 -2 17 0 24 4 14 9 17
217 8 585 -5 194 -2 214 25 215 12 0 26 -45 57 -180 16 -69 38 -153 49 -188
20 -60 48 -272 53 -397 l3 -60 170 -16 c173 -16 205 -13 205 19 0 9 9 28 19
42 16 19 22 22 34 12 11 -10 17 -9 26 1 15 19 21 56 26 177 6 155 27 290 46
300 18 10 29 1 179 -159 57 -61 112 -111 121 -111 14 0 17 16 22 103 3 72 11
117 26 152 18 42 20 45 15 15 -8 -44 -16 -205 -15 -293 1 -49 -3 -73 -14 -83
-8 -9 -15 -21 -15 -28 0 -34 -133 -119 -207 -132 -16 -3 -35 -14 -44 -26 -9
-12 -35 -24 -60 -29 -24 -4 -71 -13 -104 -19 -33 -6 -71 -13 -85 -16 -14 -3
-52 -9 -85 -14 -33 -6 -89 -17 -125 -25 -36 -8 -78 -16 -95 -17 -26 -3 -30 -6
-27 -30 1 -16 -2 -28 -8 -28 -6 0 -8 -5 -5 -11 4 -6 13 -8 20 -5 7 2 21 -4 30
-14 15 -16 15 -22 5 -35 -15 -18 2 -45 28 -45 8 0 13 -3 9 -6 -9 -9 22 -66 44
-82 11 -7 19 -19 19 -27 0 -8 8 -19 18 -24 16 -10 16 -10 -1 -11 -11 0 -31 8
-45 19 -35 24 -82 35 -82 20 0 -8 -12 -10 -35 -6 -19 3 -35 4 -35 2 0 -5 170
-118 200 -133 14 -7 52 -30 85 -52 33 -22 76 -47 95 -55 19 -9 44 -24 55 -34
11 -10 52 -36 90 -57 39 -21 72 -41 75 -44 4 -5 84 -48 129 -69 9 -5 25 -13
37 -19 13 -6 26 -7 35 -1 8 5 25 9 37 9 15 0 22 5 19 13 -3 8 -22 11 -60 9
-45 -2 -57 1 -57 13 0 9 9 15 21 15 17 0 19 3 10 14 -13 16 -124 85 -210 131
-38 20 -55 35 -53 47 1 9 -2 19 -8 23 -5 3 -10 11 -10 17 0 6 8 3 19 -8 10
-10 16 -25 13 -31 -2 -7 2 -13 9 -13 8 0 25 -9 39 -20 14 -11 31 -20 38 -20 7
0 22 -9 34 -20 12 -11 37 -23 55 -26 19 -4 40 -12 47 -19 8 -8 42 -14 87 -15
92 -3 98 -2 79 10 -10 7 -11 10 -2 10 7 0 15 -7 18 -15 5 -11 11 -12 26 -4 18
10 18 12 4 34 -13 20 -13 23 -2 19 20 -8 29 -35 16 -48 -5 -5 -10 -18 -10 -27
0 -16 7 -17 80 -10 8 1 2 8 -15 16 -18 8 -23 14 -13 14 9 1 20 6 24 13 5 8 0
9 -14 6 -12 -4 -22 -2 -22 3 0 15 -55 59 -67 54 -8 -2 -13 3 -13 14 0 17 24
31 59 35 8 0 16 7 19 14 3 10 -5 12 -34 7 -35 -6 -37 -5 -21 8 21 17 22 27 2
27 -8 0 -15 6 -15 14 0 15 27 29 40 21 12 -7 33 23 27 39 -4 10 -1 13 8 10 8
-3 24 1 37 10 21 15 21 16 3 17 -16 0 -15 3 8 13 15 7 25 15 22 17 -3 3 13 6
34 7 22 1 43 -3 46 -8 3 -6 14 -10 25 -10 15 0 17 5 10 35 -7 31 -6 35 12 35
14 0 18 5 14 15 -7 18 1 18 33 1 l24 -13 -32 -11 c-17 -6 -31 -16 -31 -21 0
-12 13 -14 24 -4 3 4 14 8 22 9 9 1 21 5 28 7 17 7 13 80 -5 86 -8 2 -17 9
-21 14 -3 6 -20 10 -37 10 -17 0 -33 7 -36 15 -3 8 -12 11 -20 8 -8 -3 -15 -2
-15 3 0 4 -21 23 -47 42 -71 51 -110 91 -117 122 -5 22 -11 27 -26 22 -12 -4
-20 -2 -20 4 0 6 -5 11 -11 11 -6 0 -22 9 -36 20 -27 21 -90 27 -121 12 -10
-5 -34 -4 -57 3 l-40 12 60 8 c33 4 65 11 71 16 6 5 29 10 50 12 33 2 39 -1
42 -20 5 -36 27 -46 86 -39 l55 7 5 62 c3 34 8 148 11 252 11 384 18 540 25
560 8 19 9 19 18 -5 9 -20 11 -7 11 65 1 62 -2 85 -9 75 -7 -11 -10 -2 -10 32
0 26 5 50 10 53 6 4 3 17 -9 34 -11 14 -23 44 -27 65 -6 33 -4 38 8 34 11 -5
15 1 16 23 1 43 37 86 95 116 58 29 230 77 322 89 33 4 63 9 68 10 4 1 17 2
30 3 17 1 19 3 7 11 -8 5 -11 12 -8 15 11 11 26 -3 62 -56 33 -49 34 -50 32
-20 -1 17 -8 39 -16 49 -24 30 -40 61 -40 77 0 17 -70 98 -78 91 -2 -3 10 -26
27 -52 37 -56 37 -59 11 -77 -11 -8 -17 -17 -13 -20 3 -4 -1 -7 -11 -7 -10 0
-14 5 -10 11 4 7 1 10 -7 7 -8 -3 -13 -10 -12 -15 1 -5 -13 -9 -32 -9 -19 0
-31 4 -29 8 3 4 10 8 15 8 6 0 17 7 25 15 14 13 14 15 1 15 -9 0 -23 3 -33 7
-13 5 -16 3 -11 -10 8 -21 3 -22 -15 -3 -8 8 -47 16 -94 20 -43 3 -131 10
-194 15 -63 5 -153 13 -200 16 -47 4 -101 11 -120 16 -38 10 -39 12 -151 181
-38 58 -81 118 -94 133 -44 47 -32 64 60 90 33 10 93 31 133 47 85 35 92 46
92 147 0 43 6 80 16 100 20 39 29 141 20 205 l-7 46 -185 0 c-140 0 -184 -3
-184 -12 0 -7 -5 -47 -11 -88 -5 -41 -14 -133 -19 -205 -9 -146 -23 -205 -47
-205 -27 0 -132 44 -138 58 -3 7 16 60 41 118 25 57 42 108 39 113 -3 6 8 52
25 104 16 52 30 99 30 106 0 8 -44 11 -150 11 l-150 0 -2 -37 c-1 -21 -1 -56
0 -78 1 -26 -5 -48 -17 -64 l-18 -24 -13 38 c-12 37 -10 113 5 148 7 16 -71
17 -1546 17 -854 0 -1550 -2 -1548 -4z m2992 -273 c6 -27 -59 -139 -113 -194
-35 -35 -58 -50 -82 -53 -18 -2 -36 -2 -40 0 -11 7 19 76 76 177 l50 87 52 0
c42 0 53 -4 57 -17z m-1004 -239 c98 -27 131 -42 169 -80 52 -53 7 -58 -129
-13 -63 21 -125 33 -189 37 -86 6 -95 9 -95 27 0 15 12 24 50 37 67 23 84 22
194 -8z m639 -81 c6 -19 -25 -16 -32 3 -4 11 -1 14 11 12 9 -2 18 -9 21 -15z
m146 -49 c24 -9 19 -28 -12 -46 -33 -20 -46 -13 -50 25 -2 23 1 27 22 27 13 0
31 -3 40 -6z m-269 -34 c3 -5 1 -10 -4 -10 -6 0 -11 5 -11 10 0 6 2 10 4 10 3
0 8 -4 11 -10z m-1049 -275 c12 -8 24 -11 28 -8 3 3 6 1 6 -6 0 -13 -30 -26
-100 -44 -25 -7 -51 -20 -58 -30 -24 -31 -31 -8 -12 40 15 41 23 49 51 54 55
10 64 10 85 -6z m1854 -156 c9 -18 -7 -79 -21 -79 -11 0 -109 99 -109 110 0
17 26 16 74 -1 27 -9 52 -23 56 -30z m-450 -371 c34 -72 50 -135 32 -124 -7 4
-12 2 -12 -3 0 -22 -19 -10 -49 31 -24 33 -31 52 -31 88 0 38 12 70 28 70 1 0
16 -28 32 -62z m890 32 c0 -5 7 -16 17 -25 10 -10 12 -19 6 -23 -5 -4 -16 -22
-24 -39 -8 -18 -17 -33 -21 -33 -11 0 -48 38 -48 49 0 21 12 39 23 35 7 -2 19
1 27 6 12 8 13 13 3 29 -11 17 -10 19 2 15 8 -4 15 -10 15 -14z m269 -22 c-2
-52 -16 -117 -18 -80 0 13 -5 20 -11 17 -6 -4 -7 -11 -4 -17 4 -6 -1 -8 -14
-4 -15 5 -22 2 -27 -14 -3 -11 -12 -20 -19 -20 -9 0 -12 -10 -9 -27 l4 -28
-15 25 c-14 25 -14 25 -13 -13 1 -26 5 -37 16 -37 11 0 12 -3 5 -8 -6 -4 -15
-31 -19 -60 -4 -29 -11 -65 -15 -80 -6 -22 -8 -17 -8 24 0 64 -19 109 -65 156
-21 20 -37 41 -37 47 0 10 26 15 67 14 6 0 14 9 17 21 3 14 25 33 58 50 29 15
62 38 73 51 28 35 35 31 34 -17z m38 -115 c-3 -10 -5 -4 -5 12 0 17 2 24 5 18
2 -7 2 -21 0 -30z m-1549 -58 c7 -14 12 -36 12 -48 l-1 -22 -19 24 c-20 23
-28 71 -12 71 5 0 14 -11 20 -25z m1237 -905 c3 -5 1 -10 -4 -10 -6 0 -11 5
-11 10 0 6 2 10 4 10 3 0 8 -4 11 -10z m32 -5 c0 -8 -4 -15 -9 -15 -4 0 -8 7
-8 15 0 8 4 15 8 15 5 0 9 -7 9 -15z m-219 -66 c-21 -14 -28 -11 -21 9 9 25
27 34 31 15 2 -8 -2 -19 -10 -24z m-531 -25 c-3 -3 -12 -4 -19 -1 -8 3 -5 6 6
6 11 1 17 -2 13 -5z m639 -41 c-7 -7 -26 7 -26 19 0 6 6 6 15 -2 9 -7 13 -15
11 -17z m-456 -47 c0 -3 -4 -8 -10 -11 -5 -3 -10 -1 -10 4 0 6 5 11 10 11 6 0
10 -2 10 -4z m350 0 c0 -3 -4 -8 -10 -11 -5 -3 -10 -1 -10 4 0 6 5 11 10 11 6
0 10 -2 10 -4z m495 -24 c-3 -3 -11 0 -18 7 -9 10 -8 11 6 5 10 -3 15 -9 12
-12z m-984 -19 c13 -16 12 -17 -3 -4 -10 7 -18 15 -18 17 0 8 8 3 21 -13z
m459 7 c0 -5 -4 -10 -10 -10 -5 0 -10 5 -10 10 0 6 5 10 10 10 6 0 10 -4 10
-10z m40 -6 c0 -2 -7 -4 -15 -4 -8 0 -15 4 -15 10 0 5 7 7 15 4 8 -4 15 -8 15
-10z m-74 -20 c-3 -9 0 -11 11 -7 13 5 14 3 4 -16 -7 -12 -19 -25 -27 -28 -13
-5 -13 -7 0 -22 13 -14 12 -19 -9 -39 -17 -16 -25 -19 -29 -10 -3 7 -4 4 -1
-8 7 -30 -32 -47 -62 -27 -23 15 -21 43 3 43 9 0 14 11 14 30 0 20 -5 30 -15
30 -8 0 -15 5 -15 11 0 7 12 8 33 4 40 -9 45 -14 28 -24 -7 -5 -11 -13 -7 -19
3 -6 0 -12 -6 -15 -7 -2 -10 -8 -6 -12 4 -4 19 0 34 10 15 9 22 20 17 24 -5 3
-15 22 -21 41 l-12 35 21 -25 c19 -22 21 -23 19 -5 -5 41 0 54 16 48 8 -3 13
-12 10 -19z m54 -15 c0 -5 -4 -9 -8 -9 -5 0 -9 7 -9 15 0 8 4 12 9 9 4 -3 8
-9 8 -15z m345 11 c3 -5 -1 -10 -10 -10 -9 0 -13 5 -10 10 3 6 8 10 10 10 2 0
7 -4 10 -10z m-225 -20 c0 -5 -2 -10 -4 -10 -3 0 -8 5 -11 10 -3 6 -1 10 4 10
6 0 11 -4 11 -10z m120 6 c0 -3 -4 -8 -10 -11 -5 -3 -10 -1 -10 4 0 6 5 11 10
11 6 0 10 -2 10 -4z m367 -32 c-3 -3 -12 -4 -19 -1 -8 3 -5 6 6 6 11 1 17 -2
13 -5z m-340 -56 c-3 -8 -6 -5 -6 6 -1 11 2 17 5 13 3 -3 4 -12 1 -19z m148
-8 c3 -5 -1 -10 -9 -10 -9 0 -16 5 -16 10 0 6 4 10 9 10 6 0 13 -4 16 -10z
m112 -6 c-3 -3 -12 -4 -19 -1 -8 3 -5 6 6 6 11 1 17 -2 13 -5z m-162 -33 c34
-6 36 -8 15 -12 -35 -7 -112 10 -104 22 3 6 16 8 28 4 11 -4 39 -10 61 -14z
m-485 -36 c0 -8 -4 -15 -10 -15 -5 0 -10 7 -10 15 0 8 5 15 10 15 6 0 10 -7
10 -15z m-20 -39 c0 -8 7 -16 15 -20 8 -3 15 -13 14 -23 0 -13 -2 -14 -6 -4
-3 8 -18 25 -32 37 -21 19 -23 23 -8 24 9 0 17 -6 17 -14z m370 10 c0 -3 -4
-8 -10 -11 -5 -3 -10 -1 -10 4 0 6 5 11 10 11 6 0 10 -2 10 -4z m37 -22 c-3
-3 -12 -4 -19 -1 -8 3 -5 6 6 6 11 1 17 -2 13 -5z m53 -19 c-7 -8 -14 -15 -15
-15 -2 0 -5 7 -9 15 -4 10 1 15 16 15 17 0 18 -2 8 -15z m-60 -105 c0 -5 -5
-10 -11 -10 -5 0 -7 5 -4 10 3 6 8 10 11 10 2 0 4 -4 4 -10z m27 -46 c-3 -3
-12 -4 -19 -1 -8 3 -5 6 6 6 11 1 17 -2 13 -5z"/>
<path d="M7026 5984 c-3 -9 -6 -25 -6 -36 0 -22 -35 -126 -57 -168 -11 -21
-13 -22 -13 -5 0 35 -20 1 -40 -69 -10 -36 -29 -82 -41 -102 -11 -19 -19 -38
-16 -41 4 -3 49 16 101 41 67 33 116 67 165 113 39 35 83 74 98 86 16 12 31
26 35 32 4 6 28 26 55 44 26 18 63 53 81 77 l33 44 -195 0 c-168 0 -195 -2
-200 -16z"/>
<path d="M7951 5864 c0 -11 3 -14 6 -6 3 7 2 16 -1 19 -3 4 -6 -2 -5 -13z"/>
<path d="M7685 5749 c2 -55 7 -105 11 -110 3 -5 0 -17 -8 -26 -21 -26 -15
-343 10 -467 15 -75 17 -106 9 -123 -14 -30 -31 -29 -57 5 l-21 27 5 -25 c16
-70 16 -73 -3 -35 -11 22 -20 46 -20 53 -1 7 -15 42 -33 77 -20 43 -37 65 -48
65 -10 0 -25 10 -34 23 l-16 22 10 -27 c5 -14 43 -94 84 -176 42 -83 76 -159
76 -169 0 -10 5 -24 11 -30 6 -6 11 -17 13 -24 1 -8 10 -26 20 -41 10 -15 19
-33 20 -40 1 -7 6 -20 11 -28 11 -20 -31 16 -69 59 -17 19 -39 47 -49 64 -10
16 -21 27 -24 23 -3 -3 2 -16 13 -27 19 -22 19 -22 -3 -10 -12 6 -25 20 -28
31 -5 17 -15 20 -66 20 -63 0 -67 -4 -44 -37 13 -19 13 -22 -3 -34 -15 -13
-16 -12 -3 4 12 15 11 17 -3 17 -13 0 -16 -12 -16 -66 0 -58 2 -65 15 -54 13
10 15 9 15 -10 0 -13 -8 -24 -19 -27 -17 -4 -20 -16 -23 -79 -3 -70 6 -100 15
-51 l4 22 2 -23 c0 -12 7 -25 14 -27 22 -9 130 -16 308 -21 l177 -5 21 26 c11
15 25 24 31 20 6 -4 10 22 10 78 l0 83 -47 0 -48 -1 0 65 c1 73 22 186 40 213
12 17 13 17 18 0 3 -10 13 -36 21 -58 l15 -40 1 82 c0 52 -4 84 -12 89 -8 5
-9 1 -4 -12 6 -15 5 -16 -5 -7 -10 10 -9 23 4 64 20 59 21 73 7 64 -6 -4 -8
-10 -5 -15 3 -5 -4 -11 -15 -15 -11 -3 -20 -11 -20 -16 0 -5 -4 -9 -10 -9 -19
0 -10 29 25 74 35 47 36 57 1 31 -34 -26 -43 -16 -11 11 17 15 23 23 15 20 -8
-4 -5 1 8 10 12 9 22 23 22 31 0 11 -7 10 -29 -6 -34 -25 -41 -26 -41 -7 0 8
-6 16 -14 19 -10 4 -13 23 -10 79 3 40 6 81 8 91 2 9 0 17 -5 17 -11 0 -89
-158 -89 -182 0 -10 -4 -18 -8 -18 -11 0 -32 60 -32 91 0 14 -7 52 -16 84 -22
80 -43 198 -37 207 2 5 -3 18 -11 30 -11 16 -16 46 -16 105 0 48 -4 83 -10 83
-6 0 -8 -37 -5 -101z m-181 -925 c5 -14 4 -15 -9 -4 -17 14 -19 20 -6 20 5 0
12 -7 15 -16z m66 -15 c0 -5 -7 -9 -15 -9 -15 0 -20 12 -9 23 8 8 24 -1 24
-14z m-55 -39 c3 -6 -1 -7 -9 -4 -18 7 -21 14 -7 14 6 0 13 -4 16 -10z m330
-54 c19 -8 19 -8 -4 -17 -27 -11 -41 2 -41 36 1 18 2 18 13 4 7 -8 21 -19 32
-23z m-321 -15 c4 -5 -3 -7 -14 -4 -23 6 -26 13 -6 13 8 0 17 -4 20 -9z m266
-45 c0 -53 13 -67 51 -56 32 9 36 3 15 -25 -13 -18 -14 -18 -46 5 -42 30 -61
74 -46 105 15 33 26 21 26 -29z m-154 -12 c29 -7 82 -40 96 -59 4 -5 7 -17 7
-25 0 -9 -4 -6 -9 7 -5 13 -28 28 -59 40 -54 20 -101 55 -101 75 1 7 9 3 19
-9 10 -12 31 -25 47 -29z m249 -3 c3 -5 1 -12 -5 -16 -5 -3 -10 1 -10 9 0 18
6 21 15 7z m25 -111 c-8 -5 -24 -9 -35 -9 -16 1 -16 2 5 9 35 11 48 11 30 0z
m27 -36 c-3 -3 -12 -4 -19 -1 -8 3 -5 6 6 6 11 1 17 -2 13 -5z"/>
<path d="M7920 5794 c0 -3 9 -17 20 -31 11 -14 20 -35 19 -47 0 -15 -4 -12
-13 13 -12 34 -13 31 -39 -104 -15 -76 -25 -141 -22 -143 2 -2 11 11 19 29
l15 34 -6 -40 c-4 -28 -2 -37 5 -30 15 14 32 117 25 146 -6 21 -4 22 9 11 13
-10 16 -8 22 19 12 64 7 105 -17 127 -23 22 -37 28 -37 16z"/>
<path d="M7991 5520 c-14 -134 -16 -172 -9 -176 13 -8 19 38 15 121 -1 44 -4
69 -6 55z"/>
<path d="M2 4833 l3 -687 33 -7 c19 -4 77 -8 130 -10 l97 -4 -3 60 c-5 86 -48
594 -72 840 -11 116 -25 269 -32 340 -6 72 -16 136 -21 143 -6 7 -34 12 -73
12 l-64 0 2 -687z"/>
<path d="M775 5451 c-11 -5 -15 -10 -8 -10 7 -1 5 -14 -8 -41 -10 -21 -19 -46
-19 -54 0 -8 -4 -16 -9 -18 -6 -1 -11 -14 -14 -28 -2 -14 -11 -43 -20 -64 -20
-45 -13 -56 38 -56 21 0 39 9 58 30 46 49 60 41 82 -47 17 -67 23 -78 40 -75
10 2 24 11 31 20 9 13 12 12 16 -10 2 -13 1 -33 -3 -44 -6 -16 -8 -16 -8 -2
-1 9 -6 20 -12 24 -17 10 0 -166 18 -195 8 -13 11 -21 6 -18 -5 4 -10 0 -10
-7 0 -7 5 -13 11 -14 6 -1 32 -6 57 -13 77 -20 76 -22 73 158 -2 87 -6 188 -9
225 -3 40 -1 69 5 73 13 8 13 72 0 80 -5 3 -10 19 -10 34 0 16 -6 33 -13 39
-17 14 -266 25 -292 13z m152 -203 c-3 -7 -5 -2 -5 12 0 14 2 19 5 13 2 -7 2
-19 0 -25z m23 -28 c0 -5 -5 -10 -11 -10 -5 0 -7 5 -4 10 3 6 8 10 11 10 2 0
4 -4 4 -10z m0 -75 c0 -17 -2 -17 -10 -5 -5 8 -10 24 -10 35 0 17 2 17 10 5 5
-8 10 -24 10 -35z m24 -150 c3 -8 1 -15 -4 -15 -6 0 -10 7 -10 15 0 8 2 15 4
15 2 0 6 -7 10 -15z"/>
<path d="M1194 5432 c-47 -3 -52 -5 -57 -30 -3 -15 -9 -39 -13 -55 -9 -39 10
-59 51 -51 25 4 34 2 39 -12 4 -10 11 -93 16 -184 15 -271 18 -289 43 -294 12
-3 270 -23 572 -46 303 -23 647 -49 765 -60 118 -10 219 -15 224 -13 5 3 6 69
2 147 -3 77 -9 215 -12 306 -4 101 -11 170 -18 177 -7 7 -71 16 -166 23 -85 6
-191 15 -235 20 -44 5 -138 11 -210 15 -71 3 -164 10 -205 15 -41 5 -221 17
-400 25 -179 9 -329 17 -335 18 -5 1 -33 1 -61 -1z"/>
<path d="M7404 5344 c10 -17 27 -41 38 -55 19 -23 19 -23 -1 17 -11 22 -27 47
-37 55 -17 13 -17 12 0 -17z"/>
<path d="M7944 5305 l0 -40 28 25 c34 30 37 48 4 26 -23 -15 -25 -15 -29 7 -2
12 -4 4 -3 -18z"/>
<path d="M7510 5303 c0 -7 5 -15 10 -18 6 -3 10 -22 10 -41 0 -19 4 -34 9 -34
11 0 -4 79 -18 93 -8 8 -11 8 -11 0z"/>
<path d="M7562 4978 c5 -15 28 -23 28 -10 0 5 -7 13 -16 16 -10 4 -14 1 -12
-6z"/>
<path d="M7354 4838 c-5 -8 0 -9 14 -6 24 7 30 -15 12 -42 -9 -13 -11 -13 -20
0 -8 12 -10 13 -10 1 0 -8 7 -23 17 -33 30 -33 -12 -89 -44 -57 -8 8 -15 4
-27 -12 -9 -13 -16 -18 -16 -11 0 6 -6 12 -14 12 -8 0 -16 6 -18 12 -6 18 -58
-40 -58 -64 0 -11 5 -18 13 -15 6 2 12 10 12 17 0 15 31 37 41 28 12 -12 -12
-63 -34 -73 -12 -5 -22 -13 -22 -17 0 -4 -6 -5 -14 -2 -8 3 -17 1 -20 -5 -4
-6 16 -17 49 -26 50 -15 56 -15 71 -1 22 23 34 20 34 -9 0 -20 5 -25 25 -26
14 -1 30 -2 36 -3 7 -1 12 51 15 154 3 85 7 163 10 173 4 13 0 17 -20 17 -14
0 -28 -5 -32 -12z m-54 -232 c0 -3 -4 -8 -10 -11 -5 -3 -10 -1 -10 4 0 6 5 11
10 11 6 0 10 -2 10 -4z"/>
<path d="M580 4834 c-35 -15 -72 -61 -85 -109 -8 -27 -19 -95 -25 -150 -11
-95 -83 -684 -115 -940 -9 -66 -25 -195 -36 -286 -21 -176 -36 -269 -38 -231
-1 19 -5 21 -29 16 -15 -4 -29 -10 -32 -14 -4 -6 -186 -40 -214 -40 -3 0 -5
-48 -4 -107 0 -60 3 -93 5 -75 2 17 9 32 14 32 6 0 6 7 -1 19 -11 21 -3 54 11
45 5 -3 9 0 9 5 0 13 37 15 45 2 3 -5 1 -12 -5 -16 -5 -3 -10 0 -11 7 -1 7 -4
2 -8 -12 -11 -37 -3 -43 26 -20 31 24 83 27 83 5 0 -8 4 -15 9 -15 5 0 12 -8
14 -17 4 -17 5 -17 6 0 0 9 5 17 11 17 5 0 16 15 24 33 l14 32 2 -30 c2 -21 5
-13 10 24 5 29 12 57 17 62 9 9 7 -13 -17 -195 -5 -42 -5 -76 0 -86 9 -17 126
-67 136 -58 2 3 9 34 15 69 6 35 11 65 13 66 1 1 60 -4 132 -12 164 -19 168
-19 160 0 -3 8 -2 15 3 15 5 0 11 -9 14 -19 4 -16 18 -20 91 -26 86 -7 122 -3
112 14 -4 5 -1 22 5 38 11 29 20 74 22 108 0 11 3 22 7 25 3 3 10 15 15 28 9
21 12 22 30 7 14 -10 15 -13 4 -9 -13 4 -18 -4 -24 -33 -5 -21 -7 -44 -6 -50
1 -7 -2 -13 -6 -13 -10 0 -11 -116 -1 -125 5 -5 560 -70 773 -90 39 -3 79 -8
90 -11 11 -2 65 -8 120 -14 55 -5 161 -16 235 -24 544 -60 695 -77 765 -86 44
-5 269 -30 500 -55 514 -55 521 -56 518 -75 -1 -8 -9 -82 -18 -165 -36 -336
-42 -396 -46 -399 -2 -3 -26 0 -54 5 -27 5 -169 22 -314 39 -173 19 -268 34
-273 42 -12 20 -9 86 4 90 23 8 -4 30 -28 24 -14 -4 -24 -2 -24 4 0 20 -48 30
-75 16 -18 -9 -22 -16 -13 -19 21 -9 -9 -25 -37 -20 -19 4 -24 0 -30 -27 -5
-23 -3 -35 6 -41 19 -12 7 -19 -20 -12 -20 5 -22 10 -17 42 3 23 0 47 -10 65
-14 28 -13 31 13 58 20 21 36 29 58 28 43 -3 59 -1 53 5 -5 5 -382 55 -413 55
-8 0 -17 -31 -24 -82 -19 -132 -18 -128 -52 -128 l-31 0 6 55 c3 30 9 79 12
109 l6 54 -38 6 c-52 8 -375 44 -394 44 -8 0 -87 9 -175 21 -258 33 -480 60
-482 57 -2 -1 -8 -48 -15 -104 -11 -100 -12 -102 -37 -102 -38 0 -59 16 -43
32 6 6 12 30 12 52 1 23 4 59 9 82 l8 41 -76 11 c-138 21 -201 25 -201 15 0
-6 11 -26 24 -46 13 -19 21 -39 18 -43 -4 -4 -2 -4 4 -1 7 4 19 -4 28 -18 9
-14 12 -25 7 -25 -5 0 -13 5 -16 10 -4 6 -9 9 -13 6 -4 -2 -16 0 -27 4 -15 5
-22 22 -30 66 l-10 58 -45 8 c-28 5 -46 4 -48 -2 -2 -6 -8 -10 -13 -10 -6 0
-8 4 -5 8 3 5 -43 14 -102 21 -142 16 -182 21 -214 26 -16 2 -28 2 -28 0 0 -9
38 -43 43 -39 2 2 12 -5 22 -16 17 -18 17 -20 2 -14 -28 10 -20 -8 28 -66 26
-31 82 -127 127 -217 44 -90 86 -167 92 -172 6 -6 25 -12 41 -16 61 -12 141
-25 190 -31 27 -3 52 -7 55 -9 3 -1 34 -6 70 -9 36 -4 97 -11 135 -16 39 -6
126 -17 195 -25 69 -8 285 -34 480 -59 195 -25 393 -50 440 -55 85 -10 365
-45 450 -55 25 -3 126 -15 225 -26 170 -19 299 -35 373 -46 17 -3 32 -9 32
-13 0 -11 -50 -8 -145 7 -38 6 -97 13 -130 16 -33 3 -89 10 -125 15 -36 6 -87
12 -115 15 -27 3 -158 19 -289 36 -132 17 -245 29 -253 26 -7 -3 -13 -2 -13 2
0 5 -15 9 -32 9 -18 1 -70 6 -116 13 -45 6 -87 8 -92 5 -6 -3 -10 -2 -10 4 0
5 -8 9 -17 9 -10 -1 -65 5 -123 12 -80 10 -105 10 -108 1 -3 -9 -11 -8 -28 4
-27 17 -171 40 -210 32 -14 -2 -24 1 -24 7 0 6 -4 5 -9 -3 -5 -8 -11 -9 -15
-3 -7 12 -200 37 -216 27 -6 -4 -17 -2 -23 4 -12 9 -168 32 -212 30 -11 0 -38
4 -60 10 -70 17 -171 24 -193 12 -16 -9 -23 -8 -29 2 -12 20 -83 30 -83 12 0
-8 4 -16 9 -19 5 -3 12 -18 16 -33 3 -15 10 -30 13 -33 4 -3 17 -25 30 -50 54
-107 87 -160 104 -166 10 -3 18 -11 18 -19 0 -7 6 -15 14 -18 10 -4 12 -14 8
-29 -5 -21 -4 -22 13 -8 17 14 18 13 12 -4 -6 -14 5 -38 38 -86 59 -89 71 -93
82 -28 9 55 29 76 59 63 13 -5 15 -9 7 -12 -7 -3 -13 -13 -13 -24 0 -10 -4
-19 -10 -19 -18 0 -11 -29 10 -40 17 -9 20 -8 20 10 l0 21 29 -20 c16 -12 33
-21 38 -21 5 0 16 -11 23 -25 17 -33 30 -32 28 2 -2 16 -10 28 -21 31 -10 2
-16 11 -13 18 3 7 -4 16 -15 19 -10 4 -19 11 -19 16 0 5 -12 9 -26 9 -26 0
-26 1 -10 25 23 36 20 46 -11 39 -25 -7 -27 -6 -14 9 12 15 11 17 -3 17 -10 0
-16 8 -16 21 0 17 -6 20 -32 19 -57 -3 -60 -2 -48 20 6 11 15 18 21 15 5 -4 8
-1 7 6 -2 7 11 22 29 33 18 12 32 28 33 36 0 10 3 11 8 4 4 -6 29 -14 57 -18
62 -8 94 -38 102 -94 5 -34 12 -45 42 -64 20 -12 39 -21 44 -20 4 1 7 -3 7 -8
0 -6 12 -10 26 -10 17 0 28 6 31 20 3 11 10 20 15 20 5 0 6 5 3 10 -3 6 -17
10 -31 10 -17 0 -24 5 -24 20 0 11 6 20 14 20 21 0 38 26 33 52 l-4 23 -8 -24
c-8 -23 -8 -23 -21 8 -16 39 -10 58 27 76 73 38 179 -4 195 -79 4 -17 16 -41
28 -52 11 -12 29 -34 39 -48 10 -15 23 -26 29 -24 6 2 20 28 33 58 17 43 26
54 41 52 14 -2 16 -1 5 6 -18 13 49 65 84 64 70 0 142 -91 130 -167 -3 -22
-10 -41 -15 -43 -6 -2 -19 -24 -30 -49 -19 -43 -19 -47 -4 -64 9 -10 21 -16
25 -13 5 3 9 1 9 -5 0 -18 55 -5 88 19 18 13 32 31 32 41 0 11 6 16 18 13 16
-4 45 15 124 85 35 31 41 33 85 26 84 -12 93 -16 119 -61 39 -66 18 -126 -55
-163 -39 -21 -106 -75 -150 -123 -15 -16 -25 -41 -27 -65 -2 -21 -1 -33 2 -27
3 7 20 6 54 -5 48 -15 69 -34 49 -46 -5 -4 -8 -1 -7 6 3 14 -36 26 -89 28 -32
1 -33 0 -32 -41 0 -47 9 -72 24 -75 14 -2 115 -14 150 -17 72 -8 188 -14 165
-9 -14 2 -29 9 -35 15 -7 7 0 8 22 3 26 -5 34 -2 50 20 10 14 26 35 36 47 9
11 17 32 17 45 0 19 5 23 28 23 16 0 37 -7 48 -15 10 -8 24 -14 29 -15 6 0 3
5 -5 11 -11 8 -6 9 20 3 19 -4 49 -8 67 -8 17 -1 35 -4 39 -8 4 -4 18 -5 30
-2 16 4 24 2 24 -7 0 -11 2 -11 10 1 5 8 12 11 16 8 3 -4 -5 -21 -20 -38 -14
-17 -26 -36 -26 -41 0 -6 -6 -7 -12 -3 -7 4 -10 4 -6 -1 11 -12 -23 -63 -45
-69 -11 -3 -28 0 -36 5 -13 9 -13 10 3 4 12 -3 28 2 43 16 49 47 26 65 -102
80 l-98 13 -24 -30 c-13 -16 -21 -37 -19 -47 3 -13 0 -17 -10 -13 -8 3 -14 1
-14 -5 0 -7 12 -8 33 -4 24 5 28 4 17 -4 -8 -6 -10 -11 -4 -11 5 0 16 6 23 12
11 11 12 10 6 -1 -6 -11 -3 -13 15 -8 13 3 32 1 43 -5 14 -7 22 -7 27 2 6 10
8 10 12 0 2 -7 26 -15 54 -17 48 -5 51 -4 82 33 43 51 43 52 88 115 21 30 54
74 75 99 20 25 41 55 48 68 7 12 17 20 23 16 7 -5 8 -2 4 5 -9 14 24 42 38 33
28 -16 63 -11 76 12 7 13 24 26 39 29 30 6 53 -9 28 -19 -9 -3 -17 -10 -17
-15 0 -15 22 -10 36 8 17 24 32 8 16 -17 -7 -11 -12 -28 -11 -37 0 -14 3 -12
12 7 7 14 23 35 36 48 13 12 20 22 15 22 -5 0 -4 4 1 8 6 4 21 22 34 39 l22
33 -30 0 c-19 0 -31 5 -31 13 0 24 25 67 39 67 8 0 11 3 8 7 -8 7 11 33 24 33
5 0 6 -7 3 -15 -4 -8 -1 -15 5 -15 6 0 11 5 11 11 0 6 7 8 16 5 12 -5 14 -1 9
17 -6 21 -5 21 9 4 14 -18 15 -18 27 5 11 21 11 22 -4 9 -15 -12 -17 -11 -17
3 0 9 8 16 18 16 23 0 84 80 79 102 -3 11 0 15 8 11 14 -5 38 33 49 79 3 15
17 129 31 255 14 125 28 242 31 258 3 17 -2 73 -10 125 -20 123 -31 298 -15
255 6 -16 12 -58 14 -92 2 -34 11 -122 20 -195 13 -111 19 -135 37 -148 11 -8
29 -23 39 -32 11 -10 19 -16 19 -14 0 3 20 -4 45 -15 49 -22 72 -28 121 -36
30 -5 31 -4 25 29 -5 32 -6 32 -9 6 -4 -32 -8 -33 -42 -12 l-25 15 28 -4 c26
-4 27 -3 27 47 0 28 -5 58 -10 66 -8 12 -10 12 -10 1 0 -8 -3 -11 -7 -8 -3 4
-12 2 -18 -3 -10 -8 -13 -1 -14 27 0 21 -5 61 -11 88 -8 45 -9 40 -6 -40 2
-55 1 -78 -4 -60 -4 17 -8 46 -9 65 -1 26 -4 31 -11 20 -7 -12 -11 -10 -19 10
-5 14 -10 18 -11 10 0 -13 -1 -13 -10 0 -8 13 -10 12 -10 -2 0 -10 7 -18 15
-18 8 0 15 -7 15 -15 0 -9 -6 -12 -16 -8 -15 5 -16 -1 -11 -53 6 -58 5 -58 -5
-14 -5 25 -12 52 -15 60 -3 8 -5 26 -4 40 1 14 -2 47 -7 73 -7 35 -6 47 2 44
6 -2 14 -21 17 -43 6 -35 6 -36 9 -9 l2 30 11 -27 c15 -39 29 -35 21 7 -4 23
-2 35 5 35 9 0 41 50 41 65 0 15 -20 2 -26 -17 -8 -29 -44 -65 -44 -45 0 8 5
29 11 47 9 26 9 34 -2 41 -19 12 22 12 92 -1 122 -21 542 -16 584 7 49 27 101
46 127 45 16 0 26 3 23 8 -7 12 32 33 46 24 16 -10 78 56 89 95 14 50 -15 110
-71 148 -52 35 -130 68 -179 77 l-35 6 35 -14 c130 -50 210 -119 210 -181 0
-92 -151 -175 -376 -205 -114 -16 -362 -8 -458 14 -38 9 -71 18 -74 21 -3 3
-8 47 -11 97 -5 81 -9 93 -25 96 -17 4 -18 0 -12 -29 4 -19 9 -60 13 -93 5
-47 3 -58 -8 -54 -19 6 -31 74 -24 127 6 39 4 47 -17 63 l-23 18 40 36 c22 19
29 28 15 20 -13 -9 -31 -16 -39 -16 -8 0 -28 -12 -45 -27 l-29 -28 22 32 c12
18 29 37 38 41 9 6 17 27 19 53 7 85 57 563 124 1182 35 323 36 357 13 404
-31 65 -73 74 -463 103 -80 6 -284 22 -455 35 -170 13 -400 31 -510 40 -277
22 -795 63 -945 75 -1058 87 -1349 106 -1380 94z m320 -224 c129 -11 372 -31
540 -45 168 -13 445 -36 615 -50 774 -62 1424 -116 1585 -129 96 -9 245 -20
330 -26 224 -16 220 -15 215 -48 -2 -15 -9 -79 -15 -142 -16 -171 -16 -170
-54 -170 -18 0 -37 -5 -44 -12 -9 -9 -12 -8 -12 5 0 10 -8 17 -17 17 -15 0
-16 -2 -3 -10 20 -12 9 -20 -19 -13 -16 4 -19 8 -10 13 7 5 -11 10 -42 13
-146 15 -539 49 -659 57 -74 6 -162 12 -195 15 -33 2 -52 2 -42 -1 11 -3 16
-12 13 -20 -3 -7 -1 -16 4 -19 6 -4 10 0 10 8 0 19 32 17 47 -2 11 -14 12 -14
13 2 0 19 17 22 54 7 14 -5 74 -11 135 -14 94 -4 112 -7 130 -25 20 -20 37
-25 73 -22 9 1 19 -3 23 -9 3 -5 11 -10 16 -10 6 0 8 4 5 8 -4 8 14 12 65 14
15 0 42 -11 63 -27 29 -22 36 -34 36 -61 0 -18 3 -35 8 -37 4 -3 47 -8 97 -12
49 -4 92 -8 95 -10 3 -2 32 -6 65 -10 37 -4 63 -12 68 -21 5 -8 12 -12 18 -9
5 4 9 -5 9 -18 0 -31 -28 -320 -36 -369 -6 -40 -24 -53 -24 -18 0 22 -34 28
-46 9 -5 -8 -10 -6 -16 5 -15 27 -35 18 -42 -19 -7 -36 -26 -58 -26 -30 0 9
-5 25 -11 36 -9 17 -13 18 -26 8 -12 -11 -18 -9 -32 9 -15 21 -18 21 -39 7
-20 -15 -26 -13 -23 7 2 19 -29 -7 -39 -32 -10 -23 -18 -28 -46 -28 -19 0 -35
5 -35 12 -3 30 -20 76 -28 76 -4 0 -15 -13 -24 -30 -20 -33 -41 -39 -55 -15
-7 14 -11 13 -27 -5 -24 -27 -46 -10 -38 31 6 30 -4 38 -24 18 -8 -8 -13 -2
-18 21 -5 23 -10 29 -18 21 -6 -6 -19 -11 -29 -11 -10 0 -18 -4 -18 -10 0 -5
-7 -10 -15 -10 -8 0 -14 6 -13 13 2 6 -2 11 -9 10 -7 -2 -10 3 -7 11 8 20
-104 35 -117 15 -6 -11 -11 -10 -27 4 -10 9 -21 14 -25 11 -3 -3 -9 10 -12 30
-8 42 -16 44 -56 15 -26 -18 -30 -19 -35 -4 -6 14 -8 14 -24 0 -9 -8 -20 -12
-25 -8 -4 5 -5 2 -1 -4 10 -17 -29 -57 -45 -47 -14 9 -44 12 -147 17 -49 3
-77 9 -83 18 -6 10 -9 10 -9 2 0 -27 -27 -11 -37 21 -9 28 -8 36 3 40 8 3 14
0 14 -6 0 -6 3 -8 6 -5 9 8 -15 37 -30 37 -6 0 -4 -5 4 -11 13 -9 13 -10 0 -6
-8 2 -15 12 -15 23 0 14 -7 19 -27 20 -16 1 -25 -3 -21 -9 4 -7 -1 -8 -13 -3
-10 4 -15 4 -11 0 8 -9 -12 -36 -23 -29 -4 2 -5 -6 -3 -19 5 -26 -22 -60 -40
-49 -7 4 -32 8 -56 10 -24 1 -48 8 -53 15 -6 10 -8 10 -8 1 0 -15 -36 -17 -45
-3 -3 5 -13 6 -21 3 -13 -5 -15 -1 -9 15 4 13 2 22 -4 22 -6 0 -11 -9 -11 -19
0 -13 -7 -19 -22 -18 -13 0 -31 -3 -40 -7 -16 -7 -18 -2 -18 34 0 41 1 42 30
38 20 -3 31 0 35 11 6 14 8 13 21 -3 16 -22 98 -30 90 -9 -5 11 14 9 39 -6 6
-3 2 2 -8 12 -11 9 -25 17 -32 17 -8 0 -16 14 -20 30 -7 33 -16 37 -35 15 -14
-16 -40 -20 -40 -6 0 15 -33 23 -41 10 -9 -16 -39 -21 -39 -7 0 6 -8 7 -17 3
-10 -4 -24 -10 -32 -13 -9 -3 -12 -1 -7 6 11 18 -29 15 -44 -3 -7 -8 -27 -15
-46 -15 -18 0 -36 -4 -39 -10 -6 -9 7 -12 70 -14 11 -1 26 -5 34 -10 11 -7 13
-5 8 7 -4 11 -1 17 8 17 8 0 15 -7 15 -15 0 -8 6 -12 14 -9 17 6 31 -12 16
-21 -6 -4 -8 -15 -5 -25 6 -18 1 -19 -47 -15 -29 3 -71 6 -93 6 -22 1 -44 4
-50 7 -5 3 -21 6 -35 6 -22 1 -25 6 -26 37 -1 31 2 36 17 32 11 -3 19 0 19 7
0 9 -10 11 -30 7 -33 -7 -51 8 -20 18 11 3 20 11 20 16 0 5 -19 -1 -41 -13
-30 -17 -43 -20 -46 -11 -3 9 -10 10 -23 3 -10 -5 -27 -7 -37 -4 -15 5 -15 4
-3 -5 8 -6 23 -8 33 -5 10 3 19 -1 23 -10 5 -12 9 -13 25 -3 17 10 23 9 34 -6
19 -26 8 -57 -21 -57 -13 0 -24 5 -24 11 0 8 -5 8 -15 -1 -20 -17 -45 -5 -46
22 -1 22 -2 20 -15 -21 -3 -10 -8 -11 -16 -3 -6 6 -16 8 -24 5 -8 -3 -14 6
-17 29 l-3 33 -8 -32 c-8 -33 -16 -40 -30 -26 -7 7 -67 12 -143 13 -31 0 -33
2 -33 38 0 49 7 55 31 31 22 -22 46 -20 41 2 -2 8 -7 32 -11 54 -8 40 -10 39
-27 -12 -4 -15 -7 -15 -14 -3 -7 11 -12 9 -29 -11 l-21 -24 -6 23 c-8 27 -13
27 -30 5 -12 -17 -13 -16 -14 5 0 27 -23 25 -28 -2 -5 -24 28 -47 49 -35 22
11 40 -10 32 -39 -4 -18 -12 -21 -39 -19 -29 2 -34 6 -34 27 l-1 25 -13 -24
c-14 -25 -33 -13 -22 14 3 8 1 15 -5 15 -7 0 -10 -14 -7 -35 3 -25 0 -35 -10
-35 -7 0 -10 5 -7 10 3 6 2 10 -2 10 -10 0 -33 79 -33 111 0 11 -4 17 -10 14
-6 -4 -10 5 -10 19 0 14 -4 26 -9 26 -5 0 -11 18 -15 40 -6 39 -18 51 -31 29
-4 -6 -13 -8 -21 -5 -8 3 -14 0 -14 -7 -1 -7 -7 -1 -15 13 -11 19 -14 21 -15
8 0 -30 -17 -20 -24 15 -7 32 -7 32 -24 11 -24 -29 -43 -24 -56 16 -8 26 -17
35 -33 34 -17 0 -23 7 -28 35 -3 20 -10 43 -15 51 -9 13 -11 13 -19 1 -8 -12
-13 -11 -30 10 -11 13 -20 19 -21 13 0 -6 -8 -21 -18 -32 l-19 -22 -26 54
c-28 57 -18 53 -129 59 -13 1 -18 10 -18 30 0 25 3 28 23 23 12 -3 33 -9 47
-12 l25 -7 -26 21 c-14 11 -42 23 -62 27 -20 4 -37 12 -37 17 0 5 10 6 21 3
13 -5 19 -3 15 3 -5 8 -75 20 -161 27 -12 1 -10 91 5 210 14 109 16 115 32
115 7 0 118 -9 248 -20z m-194 -385 c7 -18 -12 -45 -32 -45 -14 0 -20 41 -7
53 11 12 33 7 39 -8z m3268 -290 c20 0 36 -3 36 -8 0 -4 0 -14 0 -21 0 -12
-14 -14 -76 -10 -87 5 -94 7 -94 36 0 18 4 19 34 14 22 -4 37 -2 41 5 6 8 10
7 16 -2 4 -7 24 -13 43 -14z m-1774 -225 c0 -5 -5 -10 -11 -10 -5 0 -7 5 -4
10 3 6 8 10 11 10 2 0 4 -4 4 -10z m478 -62 c1 -13 3 -38 5 -55 4 -32 2 -33
-30 -33 -40 0 -50 18 -33 60 8 19 20 30 32 30 10 0 16 5 13 10 -3 6 -2 10 3
10 6 0 10 -10 10 -22z m-1218 -61 c0 -5 9 -5 20 -2 12 4 27 1 35 -5 9 -7 15
-8 15 -2 0 13 56 8 75 -8 8 -7 15 -9 15 -4 0 5 12 14 26 21 25 12 25 11 22
-30 -2 -32 -7 -41 -18 -38 -8 2 -30 4 -49 3 -25 0 -35 5 -38 19 -7 24 -23 25
-23 0 0 -16 -5 -17 -37 -11 -21 3 -42 7 -48 7 -5 1 -12 10 -16 20 -6 14 -8 15
-8 2 -1 -11 -12 -16 -36 -17 -32 -1 -35 1 -35 27 0 30 24 49 36 29 4 -7 10 -5
16 6 7 13 12 14 28 3 11 -6 20 -16 20 -20z m260 -7 c0 -5 11 -12 25 -16 14 -3
25 -11 25 -18 0 -6 4 -6 9 3 5 7 14 12 20 10 7 -3 5 -15 -7 -38 -24 -48 -43
-53 -36 -9 4 27 3 30 -6 16 -11 -18 -60 -25 -60 -9 0 25 14 71 21 71 5 0 9 -4
9 -10z m135 -20 c4 -6 15 -8 25 -5 12 4 22 -1 29 -12 9 -16 10 -16 11 5 0 12
5 22 10 22 6 0 10 -7 10 -16 0 -11 5 -14 16 -10 9 3 21 3 26 0 17 -11 78 -10
81 0 7 22 27 -7 22 -32 -5 -25 -5 -25 4 -4 10 22 51 32 51 12 0 -11 40 8 51
24 12 15 18 -10 12 -47 -4 -27 -11 -37 -24 -37 -10 0 -20 3 -23 8 -2 4 -25 7
-50 6 -43 -2 -46 0 -47 25 -2 23 -2 24 -6 4 -2 -13 -9 -23 -14 -23 -5 0 -9 10
-9 23 -1 21 -1 22 -13 2 -12 -21 -41 -29 -67 -19 -8 3 -37 7 -65 8 l-50 1 -3
38 c-3 35 9 49 23 27z m522 -54 c18 -1 35 -5 39 -9 4 -4 13 -2 20 4 7 6 19 7
26 3 16 -10 41 -14 93 -15 45 -1 66 -14 58 -35 -3 -8 1 -14 11 -14 9 0 16 -5
16 -11 0 -6 -16 -9 -37 -7 -28 2 -38 8 -38 20 0 9 -4 20 -8 24 -4 4 -7 -2 -7
-14 0 -22 -15 -38 -24 -24 -2 4 -22 7 -43 6 -21 -1 -42 1 -48 4 -5 3 -32 6
-60 6 -44 1 -50 4 -53 24 -4 27 -22 30 -22 3 0 -26 -63 -24 -68 2 -8 38 4 46
60 40 29 -2 67 -6 85 -7z m-689 -67 c192 -19 225 -20 234 -8 7 10 8 8 3 -8 -5
-18 -2 -20 15 -16 11 3 93 -2 183 -11 530 -53 647 -64 882 -86 158 -15 148 -8
140 -98 -4 -43 -11 -81 -16 -86 -8 -9 -76 -3 -579 49 -74 8 -250 26 -390 40
-140 14 -338 35 -440 45 -102 11 -216 22 -255 25 -38 3 -85 8 -104 11 l-34 5
7 76 c3 41 9 79 12 85 7 11 3 12 342 -23z m-918 -89 c0 -5 -2 -10 -4 -10 -3 0
-8 5 -11 10 -3 6 -1 10 4 10 6 0 11 -4 11 -10z m2394 -16 c5 -14 4 -15 -9 -4
-17 14 -19 20 -6 20 5 0 12 -7 15 -16z m-2614 -74 c0 -5 -4 -10 -10 -10 -5 0
-10 5 -10 10 0 6 5 10 10 10 6 0 10 -4 10 -10z m-40 -10 c0 -5 -5 -10 -11 -10
-5 0 -7 5 -4 10 3 6 8 10 11 10 2 0 4 -4 4 -10z m905 -4 c28 -3 60 -5 73 -5
12 -1 22 -7 22 -13 0 -9 -17 -13 -57 -11 -84 2 -133 13 -133 29 0 10 7 13 23
9 12 -3 45 -7 72 -9z m229 -22 c66 -9 57 -20 -15 -16 -67 3 -119 21 -63 22 17
0 52 -3 78 -6z m158 -18 c11 7 48 -5 48 -16 0 -4 -8 -6 -18 -4 -9 3 -37 6 -61
7 -25 1 -46 7 -48 14 -3 8 6 9 33 3 21 -5 42 -7 46 -4z m236 -25 c1 -1 2 -5 2
-10 0 -10 -45 -6 -110 10 -26 6 -17 7 35 4 39 -2 71 -4 73 -4z m90 -7 c34 -10
26 -24 -10 -17 -39 7 -61 23 -32 23 10 0 29 -3 42 -6z m145 -14 c9 0 17 -4 17
-9 0 -8 -29 -8 -97 -2 -7 0 -13 6 -13 12 0 8 13 10 38 5 20 -3 45 -6 55 -6z
m121 -16 c9 -3 16 -10 16 -16 0 -5 -5 -6 -12 -2 -7 4 -27 7 -45 6 -18 -2 -33
2 -33 8 0 11 49 14 74 4z m133 -20 c3 -10 -48 -13 -67 -4 -3 1 -8 2 -12 1 -5
0 -8 4 -8 10 0 14 82 7 87 -7z m-1503 -10 c8 -21 8 -21 -6 -27 -8 -3 -13 4
-13 19 0 27 10 32 19 8z m2146 -26 c0 -13 -23 -5 -28 10 -2 7 2 10 12 6 9 -3
16 -11 16 -16z m397 -4 c-3 -3 -12 -4 -19 -1 -8 3 -5 6 6 6 11 1 17 -2 13 -5z
m-602 -91 c-19 -44 -25 -52 -25 -30 0 25 19 67 30 67 6 0 4 -15 -5 -37z m239
-9 c5 -12 2 -15 -10 -10 -8 3 -18 6 -20 6 -3 0 -2 5 1 10 9 15 22 12 29 -6z
m-2994 -10 c0 -8 -4 -12 -10 -9 -5 3 -10 10 -10 16 0 5 5 9 10 9 6 0 10 -7 10
-16z m3056 -51 c-10 -10 -19 5 -10 18 6 11 8 11 12 0 2 -7 1 -15 -2 -18z m43
10 c0 -11 -3 -13 -6 -5 -2 6 -9 10 -14 6 -5 -3 -9 0 -9 5 0 6 7 11 15 11 8 0
15 -8 14 -17z m-233 -30 c-10 -10 -19 5 -10 18 6 11 8 11 12 0 2 -7 1 -15 -2
-18z m189 -23 c10 -11 13 -20 7 -20 -6 0 -9 -7 -6 -15 4 -9 0 -16 -7 -17 -8 0
-18 -2 -24 -2 -5 -1 -16 -5 -23 -10 -16 -10 -42 11 -42 35 0 27 15 31 35 9 10
-11 21 -20 25 -20 13 0 18 49 6 54 -8 3 -8 5 0 5 6 1 19 -8 29 -19z m-110 0
c3 -5 4 -10 1 -10 -2 0 -12 -3 -20 -6 -12 -5 -15 -2 -10 10 7 18 20 21 29 6z
m175 -17 c-1 -29 -40 -41 -40 -13 0 13 7 20 20 20 11 0 20 -3 20 -7z m-1065
-45 c6 -4 2 -8 -7 -8 -10 0 -18 7 -18 17 0 9 3 12 8 7 4 -5 12 -12 17 -16z
m955 -32 c0 -2 -7 -6 -15 -10 -8 -3 -15 -1 -15 4 0 6 7 10 15 10 8 0 15 -2 15
-4z m-400 -26 c0 -5 -4 -10 -10 -10 -5 0 -10 5 -10 10 0 6 5 10 10 10 6 0 10
-4 10 -10z m1287 -62 c-3 -8 -6 -5 -6 6 -1 11 2 17 5 13 3 -3 4 -12 1 -19z
m66 -40 c-8 -46 -13 -48 -13 -5 0 21 4 37 10 37 5 0 7 -14 3 -32z m-666 -54
c-3 -3 -12 -4 -19 -1 -8 3 -5 6 6 6 11 1 17 -2 13 -5z m98 -22 c-3 -3 -11 0
-18 7 -9 10 -8 11 6 5 10 -3 15 -9 12 -12z m190 -20 c-3 -3 -11 0 -18 7 -9 10
-8 11 6 5 10 -3 15 -9 12 -12z m435 -23 c0 -4 -4 -19 -10 -33 -6 -17 -6 -26 0
-26 6 0 10 9 10 20 0 11 5 20 10 20 13 0 13 -6 -1 -31 -6 -11 -17 -18 -24 -15
-8 3 -16 2 -18 -2 -2 -4 -1 0 1 8 3 8 6 27 6 41 1 14 7 26 14 26 6 0 12 -4 12
-8z m-56 -159 c4 -46 3 -55 -3 -30 -13 54 -21 127 -11 110 4 -8 10 -44 14 -80z
m-3125 3 c0 -33 -1 -35 -9 -15 -8 20 -4 52 6 52 2 0 4 -17 3 -37z m121 30 c-1
-18 -18 -35 -24 -24 -4 6 -4 16 -1 21 7 12 25 13 25 3z m110 -34 c15 -28 5
-23 -15 7 -9 15 -12 23 -6 20 6 -4 16 -16 21 -27z m-150 11 c0 -5 -2 -10 -4
-10 -3 0 -8 5 -11 10 -3 6 -1 10 4 10 6 0 11 -4 11 -10z m267 -36 l-14 -28 0
27 c0 15 3 24 8 21 5 -3 9 0 9 7 0 7 3 10 6 7 3 -4 -1 -19 -9 -34z m53 -19 c0
-8 -4 -15 -10 -15 -5 0 -10 7 -10 15 0 8 5 15 10 15 6 0 10 -7 10 -15z m719
-38 c-2 -1 -13 -9 -24 -17 -19 -14 -19 -14 -6 3 7 9 18 17 24 17 6 0 8 -1 6
-3z m-1059 -37 c8 -5 12 -11 10 -14 -3 -2 -14 2 -24 10 -22 15 -10 19 14 4z
m-60 -10 c0 -5 -2 -10 -4 -10 -3 0 -8 5 -11 10 -3 6 -1 10 4 10 6 0 11 -4 11
-10z m1060 6 c0 -3 -4 -8 -10 -11 -5 -3 -10 -1 -10 4 0 6 5 11 10 11 6 0 10
-2 10 -4z m-747 -36 c20 -24 6 -27 -17 -4 -18 17 -20 24 -8 24 4 0 15 -9 25
-20z m667 -18 c0 -11 -41 -34 -48 -28 -3 4 3 13 14 21 21 16 34 19 34 7z
m2357 -24 c-3 -7 -5 -2 -5 12 0 14 2 19 5 13 2 -7 2 -19 0 -25z m-20 -15 c-3
-10 -5 -4 -5 12 0 17 2 24 5 18 2 -7 2 -21 0 -30z m-24 7 c3 -11 1 -18 -4 -14
-5 3 -9 12 -9 20 0 20 7 17 13 -6z m-2393 -25 c-7 -8 -17 -15 -22 -15 -6 0 -5
7 2 15 7 8 17 15 22 15 6 0 5 -7 -2 -15z m2315 5 c3 -5 2 -10 -4 -10 -5 0 -13
5 -16 10 -3 6 -2 10 4 10 5 0 13 -4 16 -10z m-1328 -22 c-3 -8 -6 -5 -6 6 -1
11 2 17 5 13 3 -3 4 -12 1 -19z m-164 -50 c-10 -19 -22 -6 -19 20 6 46 8 48
15 17 4 -16 6 -33 4 -37z m1557 32 c0 -5 -2 -10 -4 -10 -3 0 -8 5 -11 10 -3 6
-1 10 4 10 6 0 11 -4 11 -10z m-2073 -6 c-3 -3 -12 -4 -19 -1 -8 3 -5 6 6 6
11 1 17 -2 13 -5z m-897 -304 c0 -5 -5 -10 -11 -10 -5 0 -7 5 -4 10 3 6 8 10
11 10 2 0 4 -4 4 -10z m-30 -10 c0 -5 -2 -10 -4 -10 -3 0 -8 5 -11 10 -3 6 -1
10 4 10 6 0 11 -4 11 -10z m55 -20 c3 -5 -1 -10 -10 -10 -9 0 -13 5 -10 10 3
6 8 10 10 10 2 0 7 -4 10 -10z m190 0 c3 -5 1 -10 -4 -10 -6 0 -11 5 -11 10 0
6 2 10 4 10 3 0 8 -4 11 -10z m35 0 c0 -5 -4 -10 -10 -10 -5 0 -10 5 -10 10 0
6 5 10 10 10 6 0 10 -4 10 -10z m-403 -26 c-3 -3 -12 -4 -19 -1 -8 3 -5 6 6 6
11 1 17 -2 13 -5z m653 -4 c0 -5 -4 -10 -10 -10 -5 0 -10 5 -10 10 0 6 5 10
10 10 6 0 10 -4 10 -10z m245 -30 c3 -5 1 -10 -4 -10 -6 0 -11 5 -11 10 0 6 2
10 4 10 3 0 8 -4 11 -10z m-755 -30 c12 -8 11 -10 -7 -10 -12 0 -25 5 -28 10
-8 13 15 13 35 0z m750 0 c0 -5 -5 -10 -11 -10 -5 0 -7 5 -4 10 3 6 8 10 11
10 2 0 4 -4 4 -10z m-673 -6 c-3 -3 -12 -4 -19 -1 -8 3 -5 6 6 6 11 1 17 -2
13 -5z m643 -28 c0 -3 -4 -8 -10 -11 -5 -3 -10 -1 -10 4 0 6 5 11 10 11 6 0
10 -2 10 -4z m547 -2 c-3 -3 -12 -4 -19 -1 -8 3 -5 6 6 6 11 1 17 -2 13 -5z
m-532 -63 c9 -16 -9 -20 -23 -5 -10 12 -10 14 2 14 8 0 17 -4 21 -9z m1045 5
c0 -3 -4 -8 -10 -11 -5 -3 -10 -1 -10 4 0 6 5 11 10 11 6 0 10 -2 10 -4z m397
-52 c-3 -3 -12 -4 -19 -1 -8 3 -5 6 6 6 11 1 17 -2 13 -5z m-953 -13 c4 -5 -3
-7 -14 -4 -23 6 -26 13 -6 13 8 0 17 -4 20 -9z m1101 -1 c-3 -5 -18 -9 -33 -9
l-27 1 30 8 c17 4 31 8 33 9 2 0 0 -3 -3 -9z m225 0 c0 -5 -4 -10 -10 -10 -5
0 -10 5 -10 10 0 6 5 10 10 10 6 0 10 -4 10 -10z m-993 -36 c-3 -3 -12 -4 -19
-1 -8 3 -5 6 6 6 11 1 17 -2 13 -5z m843 -24 c0 -5 13 -7 32 -3 22 4 29 3 24
-5 -8 -13 -35 -16 -60 -6 -18 7 -22 24 -6 24 6 0 10 -4 10 -10z m-593 -6 c-3
-3 -12 -4 -19 -1 -8 3 -5 6 6 6 11 1 17 -2 13 -5z m158 -24 c3 -5 1 -10 -4
-10 -6 0 -11 5 -11 10 0 6 2 10 4 10 3 0 8 -4 11 -10z m-378 -76 c-3 -3 -12
-4 -19 -1 -8 3 -5 6 6 6 11 1 17 -2 13 -5z m170 -20 c-3 -3 -12 -4 -19 -1 -8
3 -5 6 6 6 11 1 17 -2 13 -5z m90 -10 c-3 -3 -12 -4 -19 -1 -8 3 -5 6 6 6 11
1 17 -2 13 -5z m598 -4 c-3 -5 -12 -10 -18 -10 -7 0 -6 4 3 10 19 12 23 12 15
0z m-50 -20 c-3 -5 -11 -10 -16 -10 -6 0 -7 5 -4 10 3 6 11 10 16 10 6 0 7 -4
4 -10z m-555 -60 c0 -5 -5 -10 -11 -10 -5 0 -7 5 -4 10 3 6 8 10 11 10 2 0 4
-4 4 -10z m-356 -9 c3 -4 -6 -6 -19 -3 -14 2 -25 6 -25 8 0 8 39 4 44 -5z
m159 -8 c-7 -2 -19 -2 -25 0 -7 3 -2 5 12 5 14 0 19 -2 13 -5z m407 -63 c0 -5
-2 -10 -4 -10 -3 0 -8 5 -11 10 -3 6 -1 10 4 10 6 0 11 -4 11 -10z m-600 -210
c0 -5 -5 -10 -11 -10 -5 0 -7 5 -4 10 3 6 8 10 11 10 2 0 4 -4 4 -10z"/>
<path d="M695 4550 c-3 -5 -1 -10 4 -10 6 0 11 5 11 10 0 6 -2 10 -4 10 -3 0
-8 -4 -11 -10z"/>
<path d="M940 4419 c0 -5 5 -7 10 -4 6 3 10 8 10 11 0 2 -4 4 -10 4 -5 0 -10
-5 -10 -11z"/>
<path d="M800 4270 c0 -5 7 -7 15 -4 8 4 15 8 15 10 0 2 -7 4 -15 4 -8 0 -15
-4 -15 -10z"/>
<path d="M1550 4270 c0 -6 7 -10 15 -10 8 0 15 2 15 4 0 2 -7 6 -15 10 -8 3
-15 1 -15 -4z"/>
<path d="M1805 4260 c-3 -5 -1 -10 4 -10 6 0 11 5 11 10 0 6 -2 10 -4 10 -3 0
-8 -4 -11 -10z"/>
<path d="M3380 4220 c0 -5 5 -10 10 -10 6 0 10 5 10 10 0 6 -4 10 -10 10 -5 0
-10 -4 -10 -10z"/>
<path d="M1950 4176 c19 -7 39 -11 43 -9 5 3 21 -6 35 -20 35 -32 73 -52 95
-48 9 1 17 -3 17 -8 0 -14 47 -14 55 0 5 7 13 5 25 -6 21 -19 50 -10 50 16 0
21 16 26 23 7 3 -10 7 -10 17 -1 10 9 16 8 27 -3 18 -18 33 -18 33 -1 0 19
108 16 120 -3 11 -19 37 -21 120 -14 47 5 59 9 45 15 -15 6 -9 8 23 8 23 1 42
-3 42 -8 0 -5 9 -7 20 -4 11 3 27 -1 36 -8 13 -10 17 -10 23 0 10 15 82 12 93
-4 5 -6 8 -3 8 8 0 13 -9 17 -42 18 -45 0 -188 11 -368 28 -58 6 -188 17 -290
25 -102 9 -207 18 -235 21 l-50 4 35 -13z m493 -53 c-7 -2 -21 -2 -30 0 -10 3
-4 5 12 5 17 0 24 -2 18 -5z"/>
<path d="M4017 4169 c-4 -13 -10 -18 -18 -13 -8 4 -10 3 -5 -4 10 -16 36 -3
36 19 0 25 -6 24 -13 -2z"/>
<path d="M3246 4141 c-4 -7 -5 -15 -2 -18 9 -9 19 4 14 18 -4 11 -6 11 -12 0z"/>
<path d="M2292 4071 c4 -13 18 -16 19 -4 0 4 -5 9 -11 12 -7 2 -11 -2 -8 -8z"/>
<path d="M1706 3732 c-3 -6 1 -13 10 -16 23 -9 28 -2 10 13 -8 7 -17 8 -20 3z"/>
<path d="M1590 3689 c0 -5 5 -7 10 -4 6 3 10 8 10 11 0 2 -4 4 -10 4 -5 0 -10
-5 -10 -11z"/>
<path d="M2510 3657 c0 -20 25 -28 52 -17 22 9 22 10 2 7 -11 -1 -28 4 -37 12
-15 11 -17 11 -17 -2z"/>
<path d="M2100 3639 c0 -5 5 -7 10 -4 6 3 10 8 10 11 0 2 -4 4 -10 4 -5 0 -10
-5 -10 -11z"/>
<path d="M2900 3640 c0 -6 -13 -8 -30 -5 -18 3 -42 -1 -58 -9 -26 -14 -26 -15
-4 -16 12 0 22 5 22 11 0 6 6 9 13 6 6 -2 11 -10 9 -16 -1 -7 7 -9 23 -5 14 3
25 2 25 -3 0 -4 18 -8 39 -8 38 0 39 0 17 17 -11 10 -26 22 -33 28 -15 13 -23
13 -23 0z"/>
<path d="M2815 3580 c-3 -5 -1 -10 4 -10 6 0 11 5 11 10 0 6 -2 10 -4 10 -3 0
-8 -4 -11 -10z"/>
<path d="M1630 3550 c0 -5 5 -10 10 -10 6 0 10 5 10 10 0 6 -4 10 -10 10 -5 0
-10 -4 -10 -10z"/>
<path d="M1710 3540 c0 -5 5 -10 10 -10 6 0 10 5 10 10 0 6 -4 10 -10 10 -5 0
-10 -4 -10 -10z"/>
<path d="M1851 3524 c0 -11 3 -14 6 -6 3 7 2 16 -1 19 -3 4 -6 -2 -5 -13z"/>
<path d="M2165 3501 c-3 -5 -1 -12 5 -16 5 -3 10 1 10 9 0 18 -6 21 -15 7z"/>
<path d="M2250 3485 c0 -9 6 -12 15 -9 8 4 15 7 15 9 0 2 -7 5 -15 9 -9 3 -15
0 -15 -9z"/>
<path d="M7313 4824 c4 -7 1 -14 -6 -17 -8 -3 -13 -16 -11 -29 1 -12 3 -31 3
-40 1 -11 9 -18 20 -18 25 0 37 18 17 26 -22 8 -27 31 -11 48 13 12 12 16 -2
28 -9 7 -14 8 -10 2z"/>
<path d="M7192 4794 c-7 -8 -8 -14 -3 -14 10 0 25 19 20 25 -2 1 -10 -3 -17
-11z"/>
<path d="M7126 4754 c-3 -9 -2 -23 3 -32 8 -15 11 -13 20 9 5 15 16 29 23 32
7 3 1 6 -13 6 -16 1 -29 -6 -33 -15z"/>
<path d="M6999 4723 c-13 -17 -13 -17 6 -3 11 8 22 16 24 17 2 2 0 3 -6 3 -6
0 -17 -8 -24 -17z"/>
<path d="M7128 4583 c7 -3 16 -2 19 1 4 3 -2 6 -13 5 -11 0 -14 -3 -6 -6z"/>
<path d="M7055 4479 c2 -28 0 -72 -5 -98 -5 -28 -5 -47 1 -49 5 -2 9 -22 9
-44 0 -39 1 -40 19 -24 14 13 19 33 20 98 2 57 -2 84 -11 90 -10 8 -10 11 0
15 26 10 6 63 -24 63 -9 0 -11 -15 -9 -51z"/>
<path d="M7960 4470 c0 -5 9 -10 20 -10 11 0 20 5 20 10 0 6 -9 10 -20 10 -11
0 -20 -4 -20 -10z"/>
<path d="M7229 4437 c6 -14 6 -30 0 -38 -12 -19 -12 -59 0 -59 6 0 7 -16 4
-34 -6 -40 5 -96 16 -78 7 12 51 5 51 -9 0 -5 7 -9 16 -9 14 0 14 -3 4 -15
-15 -18 -36 -19 -43 -2 -3 6 -3 -4 0 -23 3 -19 16 -49 29 -67 28 -37 29 -43 9
-43 -19 0 -19 -9 1 -31 14 -16 15 -23 4 -49 -7 -17 -10 -33 -6 -37 3 -3 6 1 6
10 0 20 25 23 37 5 4 -7 6 -52 4 -100 -2 -82 -1 -88 16 -82 10 4 23 13 30 21
7 10 13 11 18 3 3 -5 11 -8 16 -4 6 4 6 11 -2 20 -9 11 -8 14 4 14 21 0 29
-70 7 -70 -12 -1 -12 -2 3 -11 17 -10 87 -146 87 -169 0 -10 3 -10 14 -1 11 9
16 9 22 0 5 -8 11 -4 21 12 11 18 13 19 8 4 -4 -11 -16 -56 -27 -100 -10 -44
-25 -93 -32 -110 -16 -36 -51 -146 -51 -160 0 -5 -6 -16 -12 -23 -7 -7 -13
-21 -13 -30 0 -9 -3 -27 -6 -39 -6 -20 -3 -23 25 -23 21 0 31 5 31 15 0 8 4
15 10 15 5 0 16 14 25 30 17 33 11 39 -16 14 -10 -9 -23 -13 -28 -9 -17 10
-13 25 4 19 11 -5 15 1 15 22 1 28 1 28 15 10 19 -26 26 -17 32 41 3 26 10 54
15 60 6 7 7 25 4 40 -6 25 -5 26 7 11 13 -16 15 -16 26 10 7 15 23 43 36 62
12 19 29 52 36 73 12 35 12 40 -5 49 -17 10 -17 11 2 28 12 12 21 38 26 76 11
102 13 114 20 121 3 3 2 11 -3 17 -5 6 -7 24 -4 39 4 21 8 25 14 15 5 -7 10
39 11 112 3 164 3 174 11 187 4 5 10 36 13 68 6 52 5 58 -9 52 -12 -5 -17 -1
-17 13 0 11 5 20 10 20 6 0 10 15 10 34 0 19 5 38 11 42 8 4 9 -1 4 -16 -5
-17 -4 -21 6 -15 12 8 11 -40 -5 -218 -5 -53 5 -118 16 -111 5 4 8 -6 6 -22
-2 -17 -8 -28 -15 -26 -16 3 -18 -59 -3 -74 7 -7 8 -19 1 -37 -15 -38 -18
-174 -5 -187 16 -16 64 -2 64 19 0 13 2 14 9 2 7 -11 10 -6 13 19 4 44 19 47
47 9 l24 -32 -23 -17 -22 -17 38 -20 c46 -24 52 -37 26 -59 -19 -16 -19 -19
-4 -50 8 -18 19 -31 23 -28 5 3 9 207 9 454 0 384 -2 450 -14 450 -22 0 -44
-26 -51 -60 -4 -16 -11 -32 -16 -35 -5 -4 -9 -13 -9 -21 0 -9 -7 -22 -15 -30
-13 -14 -14 -11 -9 22 3 20 12 44 20 52 16 16 13 38 -5 34 -21 -4 -11 16 12
22 20 6 21 7 4 17 -9 6 -15 14 -12 19 6 9 -61 19 -73 11 -4 -4 -7 -13 -7 -21
0 -11 -14 -16 -52 -18 -29 -2 -53 -7 -53 -11 0 -5 -8 -11 -19 -14 -23 -6 -39
-76 -20 -88 10 -6 6 -15 -14 -35 -15 -15 -27 -32 -27 -38 0 -6 5 -4 10 4 16
24 13 -15 -3 -48 -9 -16 -13 -56 -12 -99 1 -74 -3 -84 -24 -59 -9 11 -9 22 3
50 14 34 13 40 -7 37 -4 -1 -10 6 -13 14 -9 23 -33 18 -40 -10 -7 -29 -67 -68
-82 -53 -6 6 -7 22 0 44 5 19 10 69 12 111 2 43 4 86 5 96 1 11 9 17 24 17 18
0 23 5 22 28 0 18 5 26 14 24 7 -1 18 1 25 7 6 5 25 8 42 6 18 -1 37 1 43 4 6
4 -39 13 -100 20 -61 7 -113 10 -117 6 -12 -12 -13 -217 -1 -231 8 -10 8 -14
0 -14 -6 0 -11 -13 -11 -30 0 -16 -4 -30 -10 -30 -6 0 -10 58 -10 154 l0 154
-32 10 c-18 6 -48 13 -67 16 -28 5 -32 3 -27 -12 6 -16 5 -16 -8 1 -7 9 -23
17 -34 17 -18 0 -20 -3 -13 -23z m59 -33 c12 -4 22 -14 22 -23 0 -24 -39 -101
-40 -78 0 9 -4 17 -9 17 -5 0 -8 20 -7 45 0 25 3 45 6 45 3 0 15 -3 28 -6z
m177 -44 c3 -5 1 -10 -4 -10 -6 0 -11 5 -11 10 0 6 2 10 4 10 3 0 8 -4 11 -10z
m-137 -98 c3 -20 1 -21 -22 -11 -20 10 -23 15 -14 26 15 18 32 11 36 -15z
m622 8 c0 -5 -4 -10 -9 -10 -6 0 -13 5 -16 10 -3 6 1 10 9 10 9 0 16 -4 16
-10z m-92 -116 c-9 -33 -12 -36 -18 -19 -4 13 -1 28 9 42 21 28 23 25 9 -23z
m-538 6 c13 -8 13 -10 -2 -10 -9 0 -20 5 -23 10 -8 13 5 13 25 0z m110 -112
c0 -23 -3 -38 -6 -35 -11 10 -13 77 -3 77 5 0 9 -19 9 -42z m136 -9 c3 -6 8
-41 9 -78 2 -36 6 -90 10 -118 8 -61 -4 -68 -28 -18 -9 19 -23 35 -31 35 -18
0 -10 36 10 44 9 4 12 15 8 36 -4 16 -2 36 4 43 7 8 7 18 2 27 -12 19 -13 40
-1 40 6 0 13 -5 17 -11z m254 -90 c0 -11 -4 -17 -10 -14 -5 3 -10 13 -10 21 0
8 5 14 10 14 6 0 10 -9 10 -21z m-166 -5 c9 -24 7 -28 -9 -14 -17 14 -20 30
-6 30 5 0 12 -7 15 -16z m-214 -49 c0 -30 -4 -55 -8 -55 -4 0 -9 25 -10 55 -1
32 2 55 8 55 5 0 10 -24 10 -55z m178 7 c2 -20 -1 -32 -9 -32 -6 0 -9 8 -6 20
3 11 1 23 -4 26 -14 8 -11 26 4 22 6 -3 13 -19 15 -36z m52 -50 c0 -13 -24
-39 -41 -45 -12 -4 -18 1 -22 19 -3 18 -1 22 6 15 13 -13 30 -15 23 -2 -4 5 0
12 6 14 20 8 28 8 28 -1z m-67 -112 c6 -24 -2 -60 -14 -60 -5 0 -9 18 -9 40 0
42 14 54 23 20z m19 -42 c-7 -7 -12 -8 -12 -2 0 14 12 26 19 19 2 -3 -1 -11
-7 -17z m-2 -31 c0 -8 -7 -14 -15 -14 -16 0 -19 9 -8 20 11 11 23 8 23 -6z
m80 9 c0 -3 -4 -8 -10 -11 -5 -3 -10 -1 -10 4 0 6 5 11 10 11 6 0 10 -2 10 -4z
m-100 -266 c0 -5 -4 -10 -10 -10 -5 0 -10 5 -10 10 0 6 5 10 10 10 6 0 10 -4
10 -10z m-30 -120 c0 -13 -7 -20 -20 -20 -25 0 -27 27 -2 33 9 3 18 5 20 6 1
0 2 -8 2 -19z"/>
<path d="M7090 4245 c0 -11 8 -29 17 -40 15 -19 15 -19 8 10 -8 37 -25 57 -25
30z"/>
<path d="M7040 4206 c0 -8 7 -16 15 -20 13 -4 14 -2 5 14 -13 23 -20 26 -20 6z"/>
<path d="M7056 4142 c-4 -13 -5 -26 -2 -29 10 -11 18 4 14 29 l-4 23 -8 -23z"/>
<path d="M7240 4135 c0 -8 5 -15 10 -15 6 0 10 7 10 15 0 8 -4 15 -10 15 -5 0
-10 -7 -10 -15z"/>
<path d="M7072 3820 c0 -14 2 -19 5 -12 2 6 2 18 0 25 -3 6 -5 1 -5 -13z"/>
<path d="M7312 3780 c0 -14 2 -19 5 -12 2 6 2 18 0 25 -3 6 -5 1 -5 -13z"/>
<path d="M7099 3708 c0 -13 -2 -35 -4 -50 -2 -15 1 -30 6 -33 5 -4 9 18 9 49
0 31 -2 56 -5 56 -3 0 -5 -10 -6 -22z"/>
<path d="M6336 3504 c-9 -23 -8 -24 14 -24 11 0 20 2 20 4 0 12 -13 36 -20 36
-4 0 -11 -7 -14 -16z"/>
<path d="M2 3358 c-2 -98 3 -111 32 -83 8 8 24 15 36 15 27 0 120 -32 120 -41
0 -3 11 -4 25 -1 20 3 25 0 25 -17 0 -16 6 -21 25 -21 19 0 25 6 30 34 4 18 6
42 4 52 -1 11 1 27 6 37 4 10 5 21 1 24 -3 4 -6 -1 -6 -10 0 -13 -7 -15 -32
-10 -18 3 -37 9 -43 13 -16 11 -135 33 -142 26 -3 -3 5 -6 18 -6 28 0 68 -25
57 -35 -4 -4 -20 0 -37 8 -17 9 -33 12 -36 7 -6 -10 -23 -8 -52 8 -16 9 -23
24 -26 55 -2 23 -4 -2 -5 -55z m28 -18 c0 -5 -5 -10 -11 -10 -5 0 -7 5 -4 10
3 6 8 10 11 10 2 0 4 -4 4 -10z m50 -20 c0 -5 -8 -10 -17 -10 -15 0 -16 2 -3
10 19 12 20 12 20 0z"/>
<path d="M268 3413 c7 -3 16 -2 19 1 4 3 -2 6 -13 5 -11 0 -14 -3 -6 -6z"/>
<path d="M7043 3303 c-15 -5 -17 -23 -4 -23 5 0 11 7 15 15 3 8 4 15 3 14 -1
0 -8 -3 -14 -6z"/>
<path d="M5460 3280 c-13 -8 -13 -10 2 -10 9 0 20 5 23 10 8 13 -5 13 -25 0z"/>
<path d="M7115 3270 c3 -5 8 -10 11 -10 2 0 4 5 4 10 0 6 -5 10 -11 10 -5 0
-7 -4 -4 -10z"/>
<path d="M23 3223 c-31 -6 -30 -43 2 -65 19 -14 29 -16 51 -8 30 12 23 26 -15
32 -33 4 -38 26 -9 37 24 10 10 12 -29 4z"/>
<path d="M5750 3221 c0 -6 4 -13 10 -16 6 -3 7 1 4 9 -7 18 -14 21 -14 7z"/>
<path d="M5518 3183 c-27 -7 -22 -18 30 -73 26 -27 52 -55 58 -62 6 -7 30 -29
53 -48 24 -19 62 -51 85 -70 35 -30 237 -170 295 -205 9 -5 19 -14 23 -20 4
-5 8 -6 8 -2 0 8 66 -39 95 -66 10 -10 -191 94 -235 122 l-25 15 25 -28 c14
-15 44 -39 68 -53 23 -14 42 -29 42 -34 0 -5 7 -9 17 -9 9 0 39 -14 67 -32
106 -66 191 -121 196 -128 3 -4 31 -21 64 -39 32 -17 78 -45 102 -62 92 -63
166 -80 84 -19 -29 22 -49 40 -44 40 5 0 1 5 -10 11 -13 8 -15 13 -6 19 7 5
-8 18 -42 37 -29 17 -64 41 -78 53 l-25 22 27 -16 c84 -50 160 -88 165 -83 3
3 -16 19 -42 34 -55 32 -159 113 -193 149 -13 14 -37 27 -53 31 -16 3 -26 9
-24 13 3 5 -32 33 -77 63 -46 29 -103 71 -128 91 -25 20 -52 43 -61 50 -9 8
-59 44 -110 81 -52 37 -105 76 -119 86 -14 10 -56 35 -94 55 -39 19 -76 43
-83 52 -7 9 -13 13 -13 8 0 -6 -6 -3 -12 5 -7 9 -21 14 -30 12z"/>
<path d="M150 3160 c0 -13 30 -13 50 0 11 7 7 10 -17 10 -18 0 -33 -4 -33 -10z"/>
<path d="M7216 3154 c-4 -9 -4 -19 -1 -22 2 -3 7 3 11 12 4 9 4 19 1 22 -2 3
-7 -3 -11 -12z"/>
<path d="M5860 3155 c0 -4 9 -18 19 -31 14 -18 20 -21 24 -10 3 8 0 19 -6 24
-21 16 -37 23 -37 17z"/>
<path d="M7247 3153 c-4 -3 -7 -17 -7 -29 0 -19 7 -24 45 -30 52 -7 72 1 26
11 -21 4 -28 11 -24 22 8 21 -25 42 -40 26z"/>
<path d="M6991 3046 c9 -10 59 -14 54 -5 -4 5 -18 9 -32 9 -15 0 -24 -2 -22
-4z"/>
<path d="M105 2960 c-3 -6 1 -13 10 -16 19 -8 30 0 20 15 -8 14 -22 14 -30 1z"/>
<path d="M7752 2930 c-7 -12 -8 -20 -2 -20 5 0 10 5 10 10 0 6 6 5 14 -2 11
-11 11 -14 0 -23 -11 -8 -9 -10 11 -11 14 -1 23 1 20 5 -2 4 10 5 28 3 38 -5
36 -3 -23 31 -45 26 -46 26 -58 7z"/>
<path d="M7650 2890 c0 -11 5 -20 11 -20 5 0 7 -5 3 -11 -3 -6 -18 -9 -33 -6
-15 3 -33 2 -40 -2 -18 -11 -10 -45 12 -49 17 -4 77 18 77 28 0 3 19 4 43 3
41 -3 42 -3 14 10 -15 7 -24 16 -21 20 4 4 0 7 -9 7 -9 0 -21 9 -27 20 -6 11
-15 20 -20 20 -6 0 -10 -9 -10 -20z"/>
<path d="M7868 2874 c-3 -3 -20 -7 -38 -9 -18 -3 -35 -7 -39 -11 -7 -8 78 2
86 10 4 3 4 8 1 11 -2 3 -7 2 -10 -1z"/>
<path d="M6712 2712 c14 -12 36 -22 47 -22 12 0 21 -6 21 -14 0 -7 11 -16 24
-18 23 -5 23 -4 7 23 -11 20 -25 28 -51 32 -19 2 -44 7 -55 12 -14 6 -12 2 7
-13z"/>
<path d="M6850 2670 c0 -5 5 -10 10 -10 6 0 10 5 10 10 0 6 -4 10 -10 10 -5 0
-10 -4 -10 -10z"/>
<path d="M5165 2600 c-21 -22 -35 -43 -31 -47 4 -4 16 3 27 17 l21 25 -6 -37
c-2 -21 -3 -38 -1 -38 5 0 37 112 32 116 -2 2 -21 -14 -42 -36z"/>
<path d="M0 2590 c0 -33 3 -37 19 -33 17 4 82 -27 143 -69 9 -7 20 -9 23 -6
14 14 -17 46 -73 76 -33 18 -62 38 -65 46 -3 7 -15 16 -26 19 -19 4 -21 1 -21
-33z"/>
<path d="M340 2552 c0 -19 77 -98 86 -89 5 4 -13 29 -39 55 -26 26 -47 41 -47
34z"/>
<path d="M5101 2514 c0 -11 3 -14 6 -6 3 7 2 16 -1 19 -3 4 -6 -2 -5 -13z"/>
<path d="M5920 2521 c0 -16 115 -180 117 -167 2 6 -10 47 -26 91 -27 75 -30
80 -60 83 -17 2 -31 -1 -31 -7z"/>
<path d="M5191 2510 c-13 -45 -37 -370 -27 -359 8 8 38 317 33 341 -2 12 -5
21 -6 18z"/>
<path d="M5152 2463 c-1 -13 -6 -23 -11 -23 -6 0 -8 -15 -5 -32 3 -18 1 -60
-4 -93 -8 -49 -10 -53 -11 -22 -1 23 -7 40 -16 43 -10 4 -15 20 -15 52 0 69
-14 40 -21 -41 l-5 -72 -9 55 c-7 46 -10 51 -16 30 l-7 -25 -1 25 c-1 20 -3
22 -11 10 -5 -8 -10 -26 -10 -40 0 -14 -5 -32 -11 -40 -8 -12 -10 -10 -8 10 3
53 -1 66 -20 66 -16 0 -19 -13 -25 -126 -5 -89 -11 -129 -21 -140 -9 -9 -15
-10 -15 -3 0 6 4 13 9 15 12 4 20 237 9 244 -4 3 -9 -23 -10 -58 l-2 -63 -4
60 -5 60 -13 -70 -12 -70 1 73 c1 39 -1 72 -5 72 -5 0 -8 -21 -9 -47 -1 -27
-4 -92 -8 -146 -6 -93 -5 -97 14 -97 37 0 123 28 185 58 l60 31 -5 -57 c-3
-31 -10 -111 -15 -177 -6 -66 -12 -133 -15 -150 -2 -16 -8 -97 -14 -180 -7
-82 -13 -167 -15 -187 -2 -21 -1 -38 4 -38 9 0 11 23 40 360 21 258 35 403 51
553 5 54 8 121 6 150 -2 29 -4 42 -5 30z m-35 -270 c-3 -10 -5 -4 -5 12 0 17
2 24 5 18 2 -7 2 -21 0 -30z"/>
<path d="M4340 2390 c0 -5 5 -10 11 -10 5 0 7 5 4 10 -3 6 -8 10 -11 10 -2 0
-4 -4 -4 -10z"/>
<path d="M6140 2379 c0 -19 37 -55 47 -45 4 3 -5 19 -20 34 -20 19 -27 22 -27
11z"/>
<path d="M6340 2360 c0 -5 5 -10 11 -10 5 0 7 5 4 10 -3 6 -8 10 -11 10 -2 0
-4 -4 -4 -10z"/>
<path d="M7770 2366 c0 -2 8 -10 18 -17 15 -13 16 -12 3 4 -13 16 -21 21 -21
13z"/>
<path d="M4363 2300 c0 -36 2 -50 4 -32 2 17 2 47 0 65 -2 17 -4 3 -4 -33z"/>
<path d="M6260 2350 c0 -5 5 -10 11 -10 5 0 7 5 4 10 -3 6 -8 10 -11 10 -2 0
-4 -4 -4 -10z"/>
<path d="M7730 2351 c0 -5 5 -13 10 -16 6 -3 10 -2 10 4 0 5 -4 13 -10 16 -5
3 -10 2 -10 -4z"/>
<path d="M4852 2325 c0 -16 2 -22 5 -12 2 9 2 23 0 30 -3 6 -5 -1 -5 -18z"/>
<path d="M4427 2278 c8 -84 13 -86 13 -5 0 37 -4 67 -10 67 -6 0 -7 -24 -3
-62z"/>
<path d="M4383 2285 c0 -27 2 -38 4 -22 2 15 2 37 0 50 -2 12 -4 0 -4 -28z"/>
<path d="M6182 2317 c-13 -15 5 -87 20 -87 5 0 6 -5 3 -10 -8 -14 24 -110 36
-110 6 0 8 -8 4 -19 -4 -13 0 -20 15 -24 13 -3 20 -13 20 -30 0 -14 9 -54 20
-89 17 -54 23 -64 41 -64 16 1 24 -7 30 -29 12 -41 -6 -54 -24 -19 l-15 29 -5
-25 c-7 -39 -6 -80 3 -75 16 10 41 -46 38 -83 l-3 -37 -19 35 c-11 19 -21 40
-21 45 -1 6 -3 15 -4 20 -1 6 -5 3 -11 -5 -7 -12 -11 -10 -18 10 -70 182 -98
240 -112 240 -12 0 -2 -48 14 -69 8 -11 8 -13 -1 -7 -16 9 -16 1 -2 -26 21
-38 2 -27 -35 22 l-38 49 -56 -37 c-31 -20 -66 -45 -76 -54 -11 -10 -25 -18
-32 -18 -12 0 -342 -208 -569 -359 -55 -36 -107 -69 -115 -73 -8 -4 -67 -43
-130 -87 -63 -44 -143 -96 -177 -117 -35 -21 -63 -40 -63 -44 0 -4 48 -14 108
-24 59 -9 133 -23 164 -31 67 -17 108 -19 108 -5 0 6 5 10 11 10 5 0 8 -4 5
-9 -8 -12 65 -45 132 -61 28 -6 52 -16 52 -21 0 -4 18 -13 39 -19 56 -15 192
-59 216 -69 37 -17 52 -19 66 -11 8 6 20 3 30 -6 9 -8 27 -16 40 -18 43 -6 71
-18 59 -26 -6 -4 17 -20 56 -39 57 -27 72 -31 92 -22 13 6 29 8 35 4 16 -10
67 -14 67 -5 0 4 -11 9 -23 10 -13 1 -37 8 -53 17 -16 8 -37 15 -46 15 -10 0
-18 7 -18 15 0 12 -10 18 -22 14 -2 0 -27 9 -56 20 -30 12 -58 19 -63 16 -5
-4 -9 -2 -9 2 0 9 -128 73 -146 73 -19 1 -178 70 -160 70 24 0 158 -39 170
-50 5 -5 15 -6 22 -3 8 3 14 0 14 -6 0 -7 9 -9 25 -5 15 4 25 2 25 -5 0 -6 7
-8 14 -5 16 6 76 -25 76 -38 0 -11 70 -42 123 -54 23 -5 26 -4 21 10 -4 10
-13 15 -21 12 -7 -3 -16 0 -19 8 -3 7 -18 13 -34 14 -37 1 -70 19 -70 37 0 18
43 30 67 19 15 -6 13 -8 -9 -12 -34 -4 -37 -18 -5 -24 28 -5 49 1 42 12 -3 5
-1 11 4 15 6 3 15 -4 21 -15 6 -11 15 -18 20 -15 5 3 11 1 14 -4 7 -11 156
-58 206 -66 25 -3 28 -2 11 3 -13 4 -27 17 -32 29 -9 25 20 49 71 60 41 8 38
-3 -5 -21 -36 -15 -50 -47 -17 -41 9 2 26 4 38 4 11 1 30 10 42 21 25 23 32
25 32 7 0 -19 -43 -57 -66 -58 -12 0 -14 -3 -6 -6 16 -6 119 25 128 38 6 11
44 12 44 2 -1 -5 -17 -20 -37 -36 -30 -22 -33 -27 -15 -27 11 0 27 7 35 15 8
8 35 18 59 21 39 7 42 6 29 -9 -12 -15 -10 -17 18 -17 19 0 30 4 26 10 -3 6 3
10 13 10 11 0 23 -8 26 -17 7 -17 -9 -33 -34 -33 -8 0 3 -9 25 -20 50 -25 63
-25 40 0 -10 11 -16 22 -14 25 3 2 38 8 78 11 47 5 71 11 68 18 -3 6 -52 83
-111 171 -58 88 -143 217 -188 286 -77 118 -86 127 -123 135 -45 10 -44 6 -32
144 10 117 17 143 34 128 9 -7 62 -13 141 -15 70 -1 146 -5 170 -8 23 -2 42
-1 42 3 0 5 -15 24 -33 44 -51 56 -64 73 -49 64 21 -12 -2 27 -25 44 -15 12
-16 12 -5 0 6 -8 12 -20 12 -27 0 -7 -19 9 -42 35 -24 26 -58 62 -78 81 -36
36 -22 34 17 -2 41 -36 35 -11 -6 31 -24 24 -39 47 -35 55 3 8 0 18 -7 23 -9
5 -10 2 -6 -9 3 -10 2 -17 -3 -17 -5 0 -6 -8 -3 -17 6 -16 5 -16 -10 -4 -9 7
-14 17 -11 22 7 12 -23 42 -36 34 -8 -5 -64 48 -70 67 -38 128 -70 170 -84
112 l-7 -27 -22 21 c-11 12 -18 25 -13 29 4 4 12 1 17 -7 9 -13 10 -13 6 0 -2
8 -13 14 -24 13 -11 -1 -29 7 -38 17 -21 23 -29 25 -43 7z m106 -589 c12 -30
0 -47 -21 -29 -10 8 -14 39 -8 71 2 8 17 -15 29 -42z m-430 -80 c-1 -13 -6
-29 -12 -36 -7 -10 -3 -13 20 -10 20 2 29 -1 29 -12 1 -16 17 -17 48 -5 14 6
20 2 24 -14 3 -11 11 -21 17 -21 7 0 22 -13 33 -28 l21 -29 -36 19 c-59 28
-166 51 -206 44 -20 -4 -52 -20 -70 -36 -19 -17 -38 -30 -42 -30 -7 0 162 174
173 179 1 1 1 -9 1 -21z m-498 -238 c13 -9 13 -10 0 -10 -8 0 -22 5 -30 10
-13 9 -13 10 0 10 8 0 22 -5 30 -10z m45 -10 c-3 -5 -11 -10 -16 -10 -6 0 -7
5 -4 10 3 6 11 10 16 10 6 0 7 -4 4 -10z m555 -50 c5 8 10 12 12 10 21 -33 36
-68 31 -74 -11 -11 -23 -6 -23 9 0 8 -8 15 -18 15 -10 0 -23 5 -30 12 -7 7
-12 8 -12 2 0 -5 5 -15 12 -22 18 -18 1 -27 -27 -14 -15 7 -25 8 -25 2 0 -6
-4 -10 -10 -10 -18 0 1 27 27 39 16 7 23 17 19 26 -4 12 -2 13 15 2 16 -10 21
-9 29 3z m115 -60 c-4 -6 8 -10 29 -10 20 0 36 -4 36 -10 0 -5 -13 -7 -31 -3
-20 4 -34 1 -39 -7 -6 -9 -12 -8 -28 6 -16 13 -18 20 -9 26 18 11 49 10 42 -2z
m218 -277 c16 -15 -18 -33 -65 -33 -30 0 -47 -4 -43 -10 3 -5 15 -10 26 -10
10 0 19 -4 19 -10 0 -13 -17 -12 -63 4 -40 13 -46 30 -12 32 80 3 96 6 107 19
15 16 22 18 31 8z"/>
<path d="M4483 2280 c0 -25 2 -35 4 -22 2 12 2 32 0 45 -2 12 -4 2 -4 -23z"/>
<path d="M4403 2260 c0 -25 2 -35 4 -22 2 12 2 32 0 45 -2 12 -4 2 -4 -23z"/>
<path d="M7755 2280 c-60 -9 -131 -20 -157 -24 -42 -6 -47 -10 -44 -29 3 -18
9 -21 36 -19 20 2 39 -3 51 -14 19 -17 25 -17 122 -1 56 9 127 20 158 23 82 9
88 16 48 53 -40 36 -55 37 -214 11z"/>
<path d="M6440 2272 c6 -13 14 -21 18 -18 3 4 -2 14 -12 24 -18 16 -18 16 -6
-6z"/>
<path d="M467 2254 c-11 -12 16 -64 49 -94 72 -63 89 -17 21 55 -42 43 -57 52
-70 39z"/>
<path d="M4762 2215 c0 -16 2 -22 5 -12 2 9 2 23 0 30 -3 6 -5 -1 -5 -18z"/>
<path d="M6480 2231 c0 -5 7 -12 16 -15 14 -5 15 -4 4 9 -14 17 -20 19 -20 6z"/>
<path d="M7508 2233 c7 -3 16 -2 19 1 4 3 -2 6 -13 5 -11 0 -14 -3 -6 -6z"/>
<path d="M7215 2202 c-110 -14 -202 -27 -204 -28 -1 -2 5 -11 15 -21 47 -46
41 -46 246 -23 106 12 202 25 213 30 14 6 9 8 -17 4 -42 -6 -68 3 -47 16 17
11 22 50 6 49 -6 -1 -102 -13 -212 -27z"/>
<path d="M0 2142 c0 -61 3 -81 15 -86 33 -12 45 60 21 118 -26 62 -36 53 -36
-32z"/>
<path d="M786 2203 c-12 -12 -5 -24 40 -73 51 -54 64 -61 64 -30 0 34 -87 120
-104 103z"/>
<path d="M6531 2183 c7 -10 41 -43 76 -73 35 -30 70 -61 77 -67 8 -7 19 -13
25 -13 6 0 15 -9 21 -20 13 -24 65 -52 88 -48 11 2 -4 17 -43 42 -33 22 -67
45 -75 53 -8 7 -46 38 -85 69 -38 31 -71 60 -73 65 -2 5 -8 9 -13 9 -5 0 -4
-8 2 -17z"/>
<path d="M4841 2174 c0 -11 3 -14 6 -6 3 7 2 16 -1 19 -3 4 -6 -2 -5 -13z"/>
<path d="M255 2168 c-13 -43 -21 -108 -14 -126 13 -34 54 -29 67 8 16 43 -11
130 -40 130 -5 0 -10 -6 -13 -12z"/>
<path d="M7535 2169 c-20 -5 -9 -6 30 -2 33 3 62 7 64 9 8 7 -63 2 -94 -7z"/>
<path d="M4762 2135 c0 -16 2 -22 5 -12 2 9 2 23 0 30 -3 6 -5 -1 -5 -18z"/>
<path d="M6397 2147 c2 -4 13 -5 24 -2 12 4 21 1 25 -9 3 -8 13 -17 22 -21 12
-4 10 1 -6 18 -21 22 -78 34 -65 14z"/>
<path d="M4462 2125 c0 -16 2 -22 5 -12 2 9 2 23 0 30 -3 6 -5 -1 -5 -18z"/>
<path d="M4493 2115 c0 -22 2 -30 4 -17 2 12 2 30 0 40 -3 9 -5 -1 -4 -23z"/>
<path d="M4842 2130 c0 -14 2 -19 5 -12 2 6 2 18 0 25 -3 6 -5 1 -5 -13z"/>
<path d="M4166 2070 c2 -51 1 -57 -5 -30 -16 68 -12 -10 8 -150 11 -74 23
-166 27 -205 4 -38 10 -61 12 -50 4 13 10 2 18 -35 l13 -55 -5 85 c-3 47 -12
130 -19 185 -24 174 -28 209 -29 248 0 20 -3 37 -7 37 -4 0 -9 8 -12 18 -2 9
-3 -12 -1 -48z m11 -102 c-3 -7 -5 -2 -5 12 0 14 2 19 5 13 2 -7 2 -19 0 -25z"/>
<path d="M3842 2095 c0 -16 2 -22 5 -12 2 9 2 23 0 30 -3 6 -5 -1 -5 -18z"/>
<path d="M6430 2116 c0 -2 7 -9 15 -16 9 -7 15 -8 15 -2 0 5 -7 12 -15 16 -8
3 -15 4 -15 2z"/>
<path d="M5062 2070 c0 -19 2 -27 5 -17 2 9 2 25 0 35 -3 9 -5 1 -5 -18z"/>
<path d="M5147 2016 c-5 -48 -6 -90 -3 -93 6 -7 18 117 14 152 -2 17 -7 -10
-11 -59z"/>
<path d="M4232 2025 c0 -16 2 -22 5 -12 2 9 2 23 0 30 -3 6 -5 -1 -5 -18z"/>
<path d="M6556 2042 c-3 -6 -1 -14 5 -17 15 -10 25 3 12 16 -7 7 -13 7 -17 1z"/>
<path d="M3832 2005 c0 -16 2 -22 5 -12 2 9 2 23 0 30 -3 6 -5 -1 -5 -18z"/>
<path d="M4242 1945 c0 -16 2 -22 5 -12 2 9 2 23 0 30 -3 6 -5 -1 -5 -18z"/>
<path d="M6800 1940 c0 -5 5 -10 11 -10 5 0 7 5 4 10 -3 6 -8 10 -11 10 -2 0
-4 -4 -4 -10z"/>
<path d="M780 1915 c0 -22 29 -75 40 -75 16 0 12 22 -10 58 -22 35 -30 40 -30
17z"/>
<path d="M6620 1921 c0 -10 19 -25 25 -20 1 2 -3 10 -11 17 -8 7 -14 8 -14 3z"/>
<path d="M482 1898 c-22 -22 -9 -90 22 -110 19 -13 76 -9 82 6 11 27 -51 116
-81 116 -6 0 -16 -5 -23 -12z"/>
<path d="M4253 1835 c0 -22 2 -30 4 -17 2 12 2 30 0 40 -3 9 -5 -1 -4 -23z"/>
<path d="M5042 1805 c0 -16 2 -22 5 -12 2 9 2 23 0 30 -3 6 -5 -1 -5 -18z"/>
<path d="M4262 1760 c0 -19 2 -27 5 -17 2 9 2 25 0 35 -3 9 -5 1 -5 -18z"/>
<path d="M5122 1760 c0 -14 2 -19 5 -12 2 6 2 18 0 25 -3 6 -5 1 -5 -13z"/>
<path d="M213 1748 c-16 -21 1 -62 29 -72 49 -17 78 33 40 67 -22 20 -56 22
-69 5z"/>
<path d="M980 1740 c0 -12 9 -39 21 -62 18 -36 23 -39 31 -24 7 13 5 31 -7 62
-17 45 -45 60 -45 24z"/>
<path d="M5113 1635 c0 -22 2 -30 4 -17 2 12 2 30 0 40 -3 9 -5 -1 -4 -23z"/>
<path d="M0 1600 c0 -25 4 -39 10 -35 13 8 13 62 0 70 -6 4 -10 -10 -10 -35z"/>
<path d="M1864 1595 c-18 -14 -18 -14 9 -15 17 0 27 5 27 15 0 19 -11 19 -36
0z"/>
<path d="M4212 1555 c0 -16 2 -22 5 -12 2 9 2 23 0 30 -3 6 -5 -1 -5 -18z"/>
<path d="M767 1553 c-27 -26 15 -108 51 -101 21 4 28 58 12 88 -10 19 -49 28
-63 13z"/>
<path d="M3971 1530 c-13 -19 -21 -42 -19 -58 l3 -27 24 34 c23 32 37 81 22
81 -4 0 -17 -14 -30 -30z"/>
<path d="M5097 1482 c-5 -46 -6 -86 -4 -89 8 -7 19 97 15 137 -2 22 -6 5 -11
-48z"/>
<path d="M4236 1498 c5 -24 9 -81 10 -128 0 -47 2 -89 3 -95 2 -5 4 -14 5 -20
5 -28 29 -69 49 -86 74 -63 209 -109 319 -109 l59 0 -3 33 -3 32 -88 7 c-147
13 -232 47 -199 80 6 6 8 16 6 23 -3 7 0 16 7 21 8 5 11 2 7 -8 -8 -20 7 -43
29 -43 10 -1 17 -6 16 -13 -2 -6 4 -9 12 -6 8 4 15 11 15 17 0 5 8 3 18 -6 24
-22 89 -28 103 -10 8 9 15 10 24 3 10 -8 15 -8 20 1 6 8 10 8 15 -2 6 -9 12
-10 22 -3 7 6 31 10 53 9 50 -2 122 36 136 72 7 19 14 24 31 20 21 -6 78 20
78 35 0 11 -14 10 -26 -2 -7 -7 -307 -13 -484 -9 -8 0 -39 -1 -69 -1 -32 -1
-57 3 -61 10 -4 6 -13 11 -21 10 -30 -4 -57 12 -56 33 3 45 -16 177 -25 177
-7 0 -8 -15 -2 -42z m63 -251 c0 -10 -3 -15 -9 -12 -5 3 -9 25 -9 48 1 40 2
40 9 12 4 -16 8 -38 9 -48z m-42 41 c-3 -8 -6 -5 -6 6 -1 11 2 17 5 13 3 -3 4
-12 1 -19z m158 -8 c3 -5 1 -10 -4 -10 -6 0 -11 5 -11 10 0 6 2 10 4 10 3 0 8
-4 11 -10z m429 -13 c-5 -14 -124 -18 -124 -4 0 4 -6 5 -12 0 -18 -11 -207
-12 -214 -1 -3 5 -14 6 -25 3 -10 -4 -19 -2 -19 2 0 5 90 10 199 10 151 1 199
-1 195 -10z m-489 -19 c14 -43 13 -59 -4 -56 -11 2 -17 16 -19 41 -4 41 11 50
23 15z"/>
<path d="M7370 1499 c-339 -10 -712 -28 -719 -34 -9 -9 26 -38 61 -50 21 -7
63 -8 118 -4 47 4 167 8 268 8 164 1 604 20 820 37 78 6 82 7 82 30 l0 24
-197 -2 c-109 -1 -304 -5 -433 -9z"/>
<path d="M6523 1456 c7 -17 75 -121 160 -243 31 -46 82 -120 113 -165 31 -46
60 -86 63 -90 3 -4 4 30 3 75 -5 98 -28 146 -155 325 l-80 112 -55 0 c-43 0
-53 -3 -49 -14z"/>
<path d="M6508 1423 c16 -21 35 -49 42 -63 17 -31 83 -120 87 -117 1 2 -26 48
-62 102 -36 54 -65 102 -65 107 0 4 -7 8 -16 8 -12 0 -9 -9 14 -37z"/>
<path d="M1468 1443 c7 -3 16 -2 19 1 4 3 -2 6 -13 5 -11 0 -14 -3 -6 -6z"/>
<path d="M3891 1409 c-32 -43 -41 -84 -18 -77 11 4 17 14 48 80 20 45 3 43
-30 -3z"/>
<path d="M422 1428 c-16 -16 -15 -86 1 -118 9 -18 21 -25 42 -25 29 0 30 2 29
45 -1 77 -40 130 -72 98z"/>
<path d="M177 1413 c-22 -22 19 -130 46 -120 17 6 13 71 -7 102 -17 25 -27 30
-39 18z"/>
<path d="M4290 1383 c0 -12 5 -25 10 -28 13 -8 13 15 0 35 -8 12 -10 11 -10
-7z"/>
<path d="M1226 1365 c-14 -39 -6 -83 20 -104 50 -39 71 7 36 79 -19 38 -46 50
-56 25z"/>
<path d="M4340 1361 c0 -6 5 -13 10 -16 6 -3 10 1 10 9 0 9 -4 16 -10 16 -5 0
-10 -4 -10 -9z"/>
<path d="M3776 1232 c-32 -45 -56 -90 -54 -99 2 -10 25 17 61 71 75 111 69
136 -7 28z"/>
<path d="M791 1250 c-20 -12 -7 -87 20 -116 62 -66 118 -17 70 61 -23 37 -72
67 -90 55z"/>
<path d="M3661 1223 c-1 -24 -20 -30 -38 -12 -8 8 -13 5 -18 -11 -4 -12 -4
-24 -1 -27 3 -4 6 1 6 10 0 22 9 22 25 0 11 -15 13 -15 24 6 7 12 10 30 8 39
-3 12 -5 11 -6 -5z"/>
<path d="M3560 1206 c0 -2 7 -6 15 -10 8 -3 15 -1 15 4 0 6 -7 10 -15 10 -8 0
-15 -2 -15 -4z"/>
<path d="M3507 1183 c-4 -3 -7 -11 -7 -17 0 -6 5 -5 12 2 6 6 9 14 7 17 -3 3
-9 2 -12 -2z"/>
<path d="M3680 1181 c0 -10 19 -25 25 -20 1 2 -3 10 -11 17 -8 7 -14 8 -14 3z"/>
<path d="M1702 1138 c2 -12 10 -23 18 -25 11 -4 12 -2 2 5 -7 5 -10 16 -6 25
3 10 1 17 -6 17 -6 0 -10 -10 -8 -22z"/>
<path d="M1770 1135 c0 -8 4 -15 9 -15 5 0 11 7 15 15 3 9 0 15 -9 15 -8 0
-15 -7 -15 -15z"/>
<path d="M3655 1120 c-10 -11 -13 -20 -8 -20 13 0 38 29 31 35 -3 3 -13 -4
-23 -15z"/>
<path d="M1411 1103 c-19 -16 -20 -20 -9 -36 16 -21 92 -35 102 -18 4 6 0 24
-9 41 -18 35 -51 40 -84 13z"/>
<path d="M3521 1104 c0 -11 3 -14 6 -6 3 7 2 16 -1 19 -3 4 -6 -2 -5 -13z"/>
<path d="M1699 1095 c0 -5 -1 -18 0 -27 1 -10 -3 -18 -9 -18 -6 0 -9 -4 -5 -9
3 -5 1 -12 -5 -16 -5 -3 -10 -10 -10 -16 0 -14 39 14 45 32 3 9 1 27 -4 40 -5
13 -11 20 -12 14z"/>
<path d="M3620 1075 c-7 -9 -8 -15 -2 -15 5 0 12 7 16 15 3 8 4 15 2 15 -2 0
-9 -7 -16 -15z"/>
<path d="M3055 1050 c27 -12 43 -12 25 0 -8 5 -22 9 -30 9 -10 0 -8 -3 5 -9z"/>
<path d="M3235 1020 c3 -5 10 -10 16 -10 5 0 9 5 9 10 0 6 -7 10 -16 10 -8 0
-12 -4 -9 -10z"/>
<path d="M165 1010 c-12 -20 -8 -69 9 -94 24 -37 73 -36 82 1 10 39 -23 97
-58 101 -14 2 -29 -2 -33 -8z"/>
<path d="M506 1004 c-24 -23 -29 -59 -16 -99 16 -49 35 -65 80 -65 52 0 63 21
54 101 -5 42 -12 62 -25 69 -27 15 -76 12 -93 -6z"/>
<path d="M4690 1010 c0 -5 5 -10 11 -10 5 0 7 5 4 10 -3 6 -8 10 -11 10 -2 0
-4 -4 -4 -10z"/>
<path d="M1200 981 c0 -6 4 -13 10 -16 6 -3 7 1 4 9 -7 18 -14 21 -14 7z"/>
<path d="M4698 962 c-21 -13 -35 -28 -33 -32 5 -8 96 -42 101 -37 7 7 -10 86
-20 90 -6 2 -28 -7 -48 -21z"/>
<path d="M4930 944 c50 -23 120 -43 120 -35 0 4 -26 15 -57 25 -83 25 -103 28
-63 10z"/>
<path d="M7530 939 c-129 -16 -414 -48 -444 -50 -35 -2 50 -21 116 -26 43 -3
78 -10 78 -14 0 -13 79 -31 102 -23 16 5 20 3 15 -9 -4 -10 3 -19 21 -26 15
-6 35 -16 44 -23 23 -16 94 2 163 42 l50 30 -47 0 c-32 0 -47 4 -45 12 3 16
-124 13 -155 -3 -23 -12 -23 -12 -4 10 11 12 32 22 50 22 30 2 31 2 3 6 -15 2
-25 8 -22 13 3 5 20 7 37 3 24 -5 29 -3 23 7 -5 9 -4 11 4 6 17 -11 176 13
198 30 16 12 16 13 -12 12 -16 0 -95 -9 -175 -19z m-90 -47 c0 -13 -44 -36
-73 -38 -22 -1 -25 1 -16 12 9 11 8 14 -1 14 -8 0 -10 3 -7 6 4 4 14 1 23 -7
14 -11 17 -10 25 4 10 17 49 24 49 9z m-123 -38 c-3 -3 -12 -4 -19 -1 -8 3 -5
6 6 6 11 1 17 -2 13 -5z m250 -20 c-3 -3 -12 -4 -19 -1 -8 3 -5 6 6 6 11 1 17
-2 13 -5z"/>
<path d="M874 925 c-9 -38 9 -79 40 -90 23 -8 30 -6 42 10 17 22 18 59 4 86
-8 13 -21 19 -45 19 -28 0 -36 -4 -41 -25z"/>
<path d="M5280 942 c8 -5 26 -13 40 -16 17 -5 20 -4 10 2 -8 5 -26 13 -40 16
-17 5 -20 4 -10 -2z"/>
<path d="M6100 915 c0 -8 4 -15 10 -15 5 0 7 7 4 15 -4 8 -8 15 -10 15 -2 0
-4 -7 -4 -15z"/>
<path d="M5358 913 c7 -3 16 -2 19 1 4 3 -2 6 -13 5 -11 0 -14 -3 -6 -6z"/>
<path d="M5415 895 c17 -8 37 -14 45 -14 8 0 2 7 -15 14 -16 8 -37 14 -45 14
-8 0 -1 -7 15 -14z"/>
<path d="M7615 900 c-7 -12 2 -12 30 0 19 8 19 9 -2 9 -12 1 -25 -3 -28 -9z"/>
<path d="M6130 889 c0 -5 5 -7 10 -4 6 3 10 8 10 11 0 2 -4 4 -10 4 -5 0 -10
-5 -10 -11z"/>
<path d="M7665 880 c-3 -5 -19 -7 -36 -3 -24 5 -28 3 -23 -11 7 -18 27 -15 74
10 18 9 20 13 8 14 -9 0 -20 -4 -23 -10z"/>
<path d="M7730 880 c-13 -9 -13 -10 0 -10 8 0 22 5 30 10 13 9 13 10 0 10 -8
0 -22 -5 -30 -10z"/>
<path d="M6165 870 c-3 -5 -1 -10 4 -10 6 0 11 5 11 10 0 6 -2 10 -4 10 -3 0
-8 -4 -11 -10z"/>
<path d="M2963 852 c-7 -5 -9 -13 -3 -22 7 -11 13 -12 35 -2 14 7 23 17 20 22
-7 12 -35 13 -52 2z"/>
<path d="M6408 853 c6 -2 18 -2 25 0 6 3 1 5 -13 5 -14 0 -19 -2 -12 -5z"/>
<path d="M6555 850 c28 -12 47 -12 40 0 -3 6 -18 10 -33 9 -24 0 -25 -1 -7 -9z"/>
<path d="M7800 850 c-12 -8 -11 -10 7 -10 12 0 25 5 28 10 8 13 -15 13 -35 0z"/>
<path d="M3172 840 c-55 -13 -59 -27 -12 -35 23 -4 44 -4 47 -1 4 3 -2 6 -13
6 -17 1 -17 2 5 20 25 21 23 22 -27 10z"/>
<path d="M3265 843 c-11 -3 -24 -9 -30 -14 -10 -10 45 -2 80 12 18 7 17 8 -5
7 -14 0 -34 -2 -45 -5z"/>
<path d="M6290 837 c8 -8 37 -20 65 -25 53 -11 78 -8 29 4 -16 3 -35 13 -41
22 -8 9 -13 11 -13 4 0 -8 -7 -9 -27 -1 -25 9 -26 8 -13 -4z"/>
<path d="M3047 833 c-9 -2 -15 -9 -12 -14 9 -13 28 -11 51 6 19 14 19 14 -1
14 -11 -1 -28 -3 -38 -6z"/>
<path d="M6610 814 c-32 -12 -33 -13 -9 -13 15 -1 32 6 39 14 7 8 11 14 9 14
-2 -1 -20 -7 -39 -15z"/>
<path d="M7689 806 c-19 -6 -46 -18 -60 -27 -33 -22 -144 -48 -234 -56 -70 -6
-92 -15 -62 -26 9 -4 8 -8 -3 -16 -11 -7 14 -9 88 -6 140 5 222 33 280 92 56
59 56 60 -9 39z"/>
<path d="M6286 792 c-7 -11 36 -42 58 -42 8 0 22 -7 30 -16 9 -8 16 -13 16
-10 0 3 12 1 26 -4 34 -13 47 -4 33 22 -8 14 -13 17 -19 9 -8 -14 -117 18
-130 39 -5 8 -10 8 -14 2z"/>
<path d="M6350 790 c-13 -8 -12 -10 3 -10 9 0 17 5 17 10 0 12 -1 12 -20 0z"/>
<path d="M6425 790 c3 -5 8 -10 11 -10 2 0 4 5 4 10 0 6 -5 10 -11 10 -5 0 -7
-4 -4 -10z"/>
<path d="M1447 783 c-11 -10 -8 -51 3 -58 12 -7 33 42 24 56 -6 11 -18 12 -27
2z"/>
<path d="M6820 776 c0 -12 28 -25 53 -26 18 0 5 28 -15 34 -33 8 -38 8 -38 -8z"/>
<path d="M6514 751 c4 -6 2 -11 -3 -11 -13 0 -51 -32 -51 -42 0 -5 8 -8 18 -8
10 0 26 -6 37 -13 19 -13 71 -30 180 -61 56 -15 120 -20 136 -10 15 9 -10 24
-40 24 -41 0 -91 23 -97 44 -4 12 -12 24 -18 28 -7 5 -4 12 9 22 23 18 4 22
-24 5 -14 -9 -25 -8 -51 4 -43 22 -105 34 -96 18z m40 -7 c9 -3 13 -10 10 -15
-3 -5 -11 -6 -17 -2 -7 4 -6 0 2 -10 12 -15 11 -17 -6 -17 -27 0 -34 9 -22 31
11 21 11 21 33 13z m70 -35 c-4 -8 1 -9 16 -4 16 5 21 4 18 -6 -8 -23 -45 -23
-51 0 -3 14 0 21 10 21 8 0 11 -5 7 -11z"/>
<path d="M6894 749 c-6 -10 -4 -10 61 -27 50 -13 138 -14 130 -2 -3 5 -31 12
-63 15 -31 4 -72 10 -89 15 -19 5 -35 4 -39 -1z"/>
<path d="M7896 741 c-3 -4 6 -6 19 -3 14 2 25 6 25 8 0 8 -39 4 -44 -5z"/>
<path d="M7120 730 c0 -12 10 -13 71 -10 25 1 62 -5 82 -14 49 -20 47 -12 -3
14 -42 21 -150 29 -150 10z"/>
<path d="M7745 731 c-16 -4 -39 -13 -50 -19 -28 -17 -76 -34 -104 -39 -14 -2
-32 -8 -40 -12 -30 -16 -164 -33 -207 -27 -33 4 -44 2 -44 -8 0 -8 9 -16 21
-19 11 -3 23 -14 25 -25 6 -20 39 -31 188 -58 53 -9 99 -12 115 -8 23 7 20 9
-23 14 -46 5 -50 7 -53 35 -3 16 -6 32 -9 34 -2 2 -27 -3 -55 -12 -55 -18
-102 -21 -134 -7 -16 7 -14 9 14 9 49 1 163 31 182 47 8 8 19 14 24 14 4 0 35
13 69 29 34 16 76 32 94 36 17 3 32 11 32 16 0 10 -2 10 -45 0z"/>
<path d="M6723 687 c1 -5 12 -16 23 -23 15 -10 22 -10 37 0 16 12 13 14 -23
24 -29 7 -40 7 -37 -1z"/>
<path d="M726 664 c-11 -28 -6 -74 9 -104 31 -61 85 -20 71 54 -10 51 -66 87
-80 50z"/>
<path d="M1098 657 c-6 -29 9 -60 23 -52 9 6 2 54 -11 68 -4 5 -10 -3 -12 -16z"/>
<path d="M7157 672 c-60 -5 -32 -22 37 -22 39 0 68 5 74 13 11 13 -29 16 -111
9z"/>
<path d="M4808 658 c5 -5 16 -8 23 -6 8 3 3 7 -10 11 -17 4 -21 3 -13 -5z"/>
<path d="M195 630 c-14 -15 -15 -25 -6 -58 6 -22 20 -51 30 -63 16 -21 21 -22
36 -9 13 11 15 23 10 59 -12 78 -39 105 -70 71z"/>
<path d="M7040 646 c0 -2 9 -6 20 -9 11 -3 20 -1 20 4 0 5 -9 9 -20 9 -11 0
-20 -2 -20 -4z"/>
<path d="M7230 620 c0 -5 11 -10 25 -10 14 0 25 5 25 10 0 6 -11 10 -25 10
-14 0 -25 -4 -25 -10z"/>
<path d="M1390 593 c0 -24 26 -60 36 -50 10 10 -8 59 -23 65 -8 2 -13 -5 -13
-15z"/>
<path d="M1670 581 c-7 -14 -7 -22 1 -27 10 -6 28 11 29 28 0 17 -20 17 -30
-1z"/>
<path d="M7263 593 c9 -2 25 -2 35 0 9 3 1 5 -18 5 -19 0 -27 -2 -17 -5z"/>
<path d="M6030 546 c0 -2 9 -6 20 -9 11 -3 18 -1 14 4 -5 9 -34 13 -34 5z"/>
<path d="M6080 532 c0 -10 219 -77 226 -69 3 3 -41 20 -98 37 -56 17 -109 33
-115 35 -7 3 -13 1 -13 -3z"/>
<path d="M457 508 c-9 -5 -17 -21 -17 -36 0 -33 35 -92 54 -92 20 0 28 45 16
89 -11 42 -27 54 -53 39z"/>
<path d="M6347 479 c7 -7 15 -10 18 -7 3 3 -2 9 -12 12 -14 6 -15 5 -6 -5z"/>
<path d="M1223 445 c-8 -22 3 -95 16 -108 7 -7 18 -7 36 1 19 9 25 19 25 45 0
52 -61 101 -77 62z"/>
<path d="M734 294 c-8 -32 21 -69 32 -41 8 21 -3 67 -16 67 -5 0 -13 -12 -16
-26z"/>
<path d="M3601 296 c-13 -7 -19 -16 -13 -20 5 -3 21 3 33 14 27 22 16 26 -20
6z"/>
<path d="M930 271 c-23 -44 -2 -129 38 -149 32 -17 42 -3 42 57 0 85 -52 144
-80 92z"/>
<path d="M1447 273 c-13 -13 -7 -71 9 -84 14 -11 18 -10 30 6 24 33 -12 105
-39 78z"/>
<path d="M99 203 c-15 -39 0 -117 24 -121 10 -2 25 2 34 9 30 25 -2 139 -39
139 -5 0 -13 -12 -19 -27z"/>
<path d="M1167 153 c-14 -14 -6 -72 13 -94 20 -24 20 -24 35 -5 8 11 15 32 15
46 0 38 -43 74 -63 53z"/>
<path d="M1645 118 c-9 -24 -2 -61 13 -66 14 -4 17 45 2 68 -8 12 -10 12 -15
-2z"/>
<path d="M341 98 c-16 -43 12 -98 51 -98 26 0 28 3 28 38 0 68 -59 113 -79 60z"/>
<path d="M7560 110 c0 -6 7 -10 15 -10 8 0 15 2 15 4 0 2 -7 6 -15 10 -8 3
-15 1 -15 -4z"/>
<path d="M592 38 c4 -43 33 -46 33 -3 0 21 -5 31 -18 33 -15 3 -18 -2 -15 -30z"/>
</g>
</svg>
